<svg xmlns="http://www.w3.org/2000/svg" viewBox="0 0 1000 866" width="1000" height="866">
	<style>
		tspan { white-space:pre }
		.shp0 { fill: #ebebeb } 
		.shp1 { fill: #e0e0e0 } 
		.shp2 { fill: #f0f0f0 } 
		.shp3 { fill: #f5f5f5 } 
		.shp4 { fill: #263238 } 
		.shp5 { fill: #407bff } 
		.shp6 { opacity: 0.302;fill: #407bff } 
		.shp7 { fill: #ffffff } 
		.shp8 { opacity: 0.302;fill: #ffffff } 
		.shp9 { opacity: 0.2;fill: #000000 } 
	</style>
	<g id="Background Complete">
		<g id="&lt;Group&gt;">
			<path id="&lt;Path&gt;" class="shp0" d="M1000 631.3L0 631.3L0 630.8L1000 630.8L1000 631.3Z" />
			<path id="&lt;Path&gt;" class="shp0" d="M856.44 662.99L899.8 662.99L899.8 663.49L856.44 663.49L856.44 662.99Z" />
			<path id="&lt;Path&gt;" class="shp0" d="M621.12 652.61L689.33 652.61L689.33 653.11L621.12 653.11L621.12 652.61Z" />
			<path id="&lt;Path&gt;" class="shp0" d="M793.17 644.42L882.22 644.42L882.22 644.92L793.17 644.92L793.17 644.42Z" />
			<path id="&lt;Path&gt;" class="shp0" d="M346.03 655L323.75 655L323.75 654.5L346.03 654.5L346.03 655Z" />
			<path id="&lt;Path&gt;" class="shp0" d="M305.95 655L229.17 655L229.17 654.5L305.95 654.5L305.95 655Z" />
			<path id="&lt;Path&gt;" class="shp0" d="M188 646.56L132.61 646.56L132.61 646.06L188 646.06L188 646.56Z" />
		</g>
		<g id="&lt;Group&gt;">
			<g id="&lt;Group&gt;">
				<path id="&lt;Compound Path&gt;" fill-rule="evenodd" class="shp0" d="M415.69 271.91C414.41 280.89 412.31 289.57 409.59 297.95L422.54 308.94L411.58 332.94L394.8 330.42C390.23 338.11 384.98 345.36 379.2 352.1L386.94 367.29L367.65 385.24L353.09 376.48C345.9 381.78 338.38 386.53 330.39 390.63L331.69 407.54L307 416.76L296.92 403.15C288.37 405.29 279.58 406.73 270.53 407.46L265.32 423.59L238.97 422.69L234.88 406.24C225.9 404.89 217.22 402.85 208.85 400.14L197.78 413.02L173.79 402.13L176.31 385.35C168.62 380.71 161.37 375.46 154.63 369.68L139.51 377.42L121.49 358.2L130.25 343.57C124.94 336.45 120.2 328.85 116.17 320.87L99.26 322.24L89.97 297.55L103.64 287.46C101.5 278.92 100 270.12 99.34 261.08L83.13 255.8L84.03 229.52L100.56 225.36C101.84 216.45 103.94 207.71 106.66 199.33L93.71 188.33L104.67 164.34L121.45 166.86C126.02 159.17 131.26 151.92 137.05 145.17L129.31 129.98L148.6 112.04L163.16 120.8C170.28 115.49 177.87 110.75 185.86 106.65L184.49 89.73L209.18 80.51L219.33 94.12C227.88 91.98 236.67 90.55 245.72 89.82L250.93 73.68L277.28 74.58L281.37 91.04C290.34 92.39 299.02 94.42 307.4 97.14L318.39 84.25L342.39 95.14L339.94 111.93C347.63 116.57 354.81 121.81 361.62 127.6L376.74 119.86L394.76 139.08L386 153.7C391.31 160.83 396.05 168.42 400.08 176.4L416.99 175.04L426.28 199.73L412.61 209.81C414.75 218.35 416.25 227.22 416.91 236.2L433.05 241.47L432.15 267.76L415.69 271.91ZM362.35 252.24C364.32 194.62 319.25 146.35 261.7 144.38C204.14 142.41 155.87 187.47 153.9 245.1C151.93 302.66 197 350.93 254.55 352.9C312.11 354.87 360.38 309.8 362.35 252.24Z" />
			</g>
			<g id="&lt;Group&gt;">
				<path id="&lt;Compound Path&gt;" fill-rule="evenodd" class="shp0" d="M876.89 177.85C874.39 179.73 871.76 181.33 869.05 182.71L869.53 188.55L861.01 191.73L857.53 187.02C854.54 187.78 851.49 188.27 848.44 188.5L846.62 194.09L837.54 193.77L836.13 188.08C833.08 187.62 830.09 186.94 827.14 186L823.33 190.44L815.07 186.67L815.92 180.89C813.32 179.33 810.82 177.53 808.44 175.5L803.24 178.17L797.03 171.52L800.05 166.51C798.18 163.99 796.56 161.38 795.18 158.68L789.35 159.12L786.15 150.61L790.86 147.14C790.11 144.13 789.62 141.08 789.39 138.03L783.82 136.23L784.11 127.15L789.81 125.72C790.25 122.69 790.95 119.68 791.91 116.75L787.46 112.96L791.21 104.67L797 105.55C798.57 102.94 800.35 100.43 802.39 98.06L799.73 92.83L806.35 86.64L811.4 89.65C813.88 87.79 816.53 86.17 819.23 84.79L818.76 78.95L827.28 75.77L830.76 80.48C833.75 79.72 836.79 79.23 839.85 79L841.66 73.41L850.74 73.73L852.16 79.42C855.19 79.86 858.2 80.56 861.14 81.51L864.94 77.05L873.2 80.82L872.36 86.61C874.97 88.17 877.46 89.97 879.85 92L885.05 89.33L891.26 95.98L888.24 100.99C890.1 103.51 891.72 106.12 893.1 108.82L898.92 108.36L902.12 116.87L897.43 120.37C898.17 123.37 898.64 126.4 898.89 129.47L904.47 131.27L904.18 140.35L898.47 141.78C898.03 144.81 897.33 147.82 896.37 150.75L900.83 154.54L897.07 162.83L891.28 161.95C889.72 164.56 887.92 167.09 885.89 169.44L888.54 174.66L881.91 180.85L876.89 177.85ZM852.97 143.21C858.2 138.33 858.48 130.14 853.6 124.92C848.73 119.69 840.54 119.41 835.31 124.3C830.09 129.17 829.81 137.36 834.68 142.58C839.56 147.81 847.75 148.09 852.97 143.21Z" />
			</g>
			<path id="&lt;Compound Path&gt;" fill-rule="evenodd" class="shp0" d="M638.47 494.6L616.85 507.45C616.85 507.45 616.85 507.45 616.85 507.45C614.29 514.8 611.06 521.83 607.08 528.44L610.94 549.52L578.81 579.52L558.12 574.24C558.12 574.25 558.11 574.25 558.11 574.25C551.24 577.7 544 580.52 536.41 582.56L522.14 603.23L478.21 601.73L465.39 580.14C465.38 580.14 465.38 580.14 465.37 580.13C457.93 577.58 450.9 574.26 444.28 570.35L423.29 574.19L393.29 542.06L398.58 521.33C398.57 521.33 398.57 521.33 398.57 521.32C395.06 514.47 392.32 507.25 390.28 499.69L369.58 485.39L371.08 441.46L392.7 428.63C395.25 421.27 398.48 414.25 402.47 407.64C402.47 407.63 402.47 407.63 402.48 407.62L398.62 386.54L430.75 356.54L451.53 361.84C458.32 358.4 465.55 355.58 473.05 353.53C473.08 353.53 473.11 353.52 473.14 353.51L487.42 332.83L531.35 334.34L544.19 355.96C544.2 355.96 544.22 355.97 544.24 355.97C551.59 358.53 558.61 361.84 565.15 365.74L586.27 361.87L616.27 394L610.97 414.8C614.42 421.59 617.24 428.83 619.28 436.34C619.29 436.36 619.29 436.37 619.3 436.39L639.98 450.67L638.47 494.6ZM554.17 469.74C555.1 442.44 533.77 419.59 506.46 418.65C479.15 417.72 456.3 439.05 455.37 466.36C454.43 493.59 475.77 516.52 503.07 517.45C530.38 518.39 553.23 496.97 554.17 469.74Z" />
			<path id="&lt;Compound Path&gt;" fill-rule="evenodd" class="shp0" d="M687.1 325.91C687.05 325.91 687 325.91 686.95 325.91L652.32 324.72C650.88 324.67 649.57 323.89 648.83 322.66L639.51 306.95C634.55 305.15 629.66 302.88 624.94 300.2L609.93 302.94C608.51 303.21 607.06 302.72 606.08 301.67L582.43 276.34C581.45 275.29 581.07 273.81 581.42 272.42L585.2 257.6C582.91 252.9 580.99 247.89 579.48 242.66L564.42 232.26C563.24 231.44 562.55 230.07 562.6 228.64L563.79 194C563.83 192.56 564.61 191.25 565.85 190.52L581.58 181.17C583.45 176.07 585.71 171.2 588.32 166.68L585.56 151.61C585.3 150.2 585.78 148.75 586.83 147.77L612.16 124.11C613.22 123.13 614.7 122.75 616.09 123.11L630.96 126.9C635.77 124.56 640.77 122.63 645.86 121.15L656.25 106.1C657.07 104.92 658.41 104.19 659.87 104.28L694.5 105.47C695.94 105.52 697.26 106.3 697.99 107.54L707.33 123.27C712.3 125.09 717.15 127.35 721.79 130.01L736.9 127.24C738.31 126.99 739.76 127.46 740.74 128.52L764.39 153.85C765.38 154.9 765.75 156.38 765.4 157.77L761.61 172.65C763.95 177.46 765.88 182.46 767.35 187.54L782.4 197.93C783.59 198.75 784.27 200.12 784.22 201.55L783.04 236.19C782.99 237.63 782.21 238.94 780.97 239.68L765.23 249.02C763.37 254.13 761.11 258.99 758.5 263.51L761.26 278.58C761.52 279.99 761.04 281.45 759.99 282.43L734.66 306.07C733.61 307.06 732.13 307.44 730.73 307.08L715.93 303.31C711.05 305.66 706.03 307.59 700.95 309.05L690.57 324.09C689.78 325.23 688.48 325.91 687.1 325.91ZM654.92 316.36L684.93 317.39L694.88 302.99C695.44 302.17 696.29 301.57 697.25 301.31C702.78 299.83 708.27 297.72 713.56 295.06C713.57 295.06 713.58 295.05 713.59 295.05C714.47 294.61 715.5 294.48 716.51 294.74L730.58 298.33L752.54 277.83L749.91 263.48C749.72 262.47 749.92 261.42 750.45 260.54C753.34 255.73 755.8 250.46 757.75 244.87C758.07 243.88 758.75 243.05 759.63 242.53L774.67 233.59L775.7 203.57L761.3 193.62C760.54 193.1 759.98 192.35 759.69 191.48C759.65 191.38 759.62 191.26 759.59 191.15C758.09 185.63 755.99 180.21 753.36 175.04C752.9 174.12 752.79 173.07 753.04 172.08L756.65 157.93L736.15 135.97L721.77 138.6C720.76 138.79 719.72 138.6 718.84 138.07C713.84 135.09 708.56 132.63 703.15 130.74C702.85 130.64 702.54 130.49 702.27 130.33C701.69 129.97 701.2 129.48 700.85 128.89L691.91 113.83L661.89 112.8L651.94 127.21C651.35 128.07 650.46 128.67 649.45 128.92C643.9 130.44 638.5 132.53 633.35 135.14C632.43 135.6 631.38 135.72 630.39 135.47L616.24 131.86L594.29 152.36L596.91 166.71C597.08 167.61 596.95 168.54 596.54 169.36C596.48 169.47 596.42 169.58 596.35 169.7C593.44 174.52 590.98 179.81 589.04 185.41C588.71 186.35 588.06 187.15 587.2 187.66L572.15 196.6L571.12 226.62L585.54 236.58C586.36 237.14 586.96 237.98 587.22 238.95C588.77 244.7 590.86 250.16 593.44 255.18C593.58 255.47 593.7 255.78 593.78 256.09C593.95 256.77 593.95 257.48 593.77 258.16L590.18 272.27L610.68 294.22L624.95 291.61C625.96 291.42 626.99 291.61 627.86 292.13C632.95 295.13 638.26 297.6 643.64 299.45C644.61 299.76 645.45 300.42 645.99 301.32L654.92 316.36ZM673.46 278.43C672.72 278.43 671.98 278.41 671.23 278.39C636.34 277.19 608.93 247.83 610.12 212.94C611.32 178.05 640.73 150.65 675.57 151.83C710.46 153.03 737.88 182.39 736.68 217.28C736.1 234.16 728.98 249.82 716.63 261.36C704.81 272.41 689.55 278.43 673.46 278.43ZM673.38 160.24C643.98 160.24 619.58 183.63 618.57 213.23C617.53 243.47 641.29 268.91 671.52 269.95C686.17 270.44 700.15 265.21 710.86 255.19C721.57 245.19 727.74 231.62 728.24 216.99C729.27 186.75 705.52 161.31 675.28 160.27C674.65 160.25 674.01 160.24 673.38 160.24ZM704.48 126.73L704.5 126.73L704.48 126.73Z" />
			<g id="&lt;Group&gt;">
				<path id="&lt;Path&gt;" class="shp1" d="M766.88 76.65L752.53 72.79L748.68 58.45L754.3 52.83L760.22 65.1L772.5 71.03L766.88 76.65Z" />
				<path id="&lt;Path&gt;" class="shp1" d="M767.77 67.04C770.38 64.43 770.38 60.17 767.77 57.56C765.16 54.94 760.91 54.96 758.3 57.58L765.44 46.87L775.01 51.71L777.11 61.76L767.77 67.04Z" />
				<path id="&lt;Compound Path&gt;" fill-rule="evenodd" class="shp2" d="M753.16 53.96L763.68 43.45L778.02 47.3L781.88 61.65L771.36 72.16L757.02 68.31L753.16 53.96ZM772.25 62.56C774.87 59.94 774.87 55.68 772.25 53.07C769.64 50.46 765.4 50.48 762.79 53.09C760.17 55.7 760.17 59.93 762.79 62.54C765.4 65.15 769.64 65.17 772.25 62.56Z" />
			</g>
			<g id="&lt;Group&gt;">
				<path id="&lt;Path&gt;" class="shp1" d="M180.44 459.42L188.14 457.35L190.21 449.65L187.19 446.64L184.01 453.22L177.43 456.4L180.44 459.42Z" />
				<path id="&lt;Path&gt;" class="shp1" d="M179.96 454.26C178.56 452.86 178.56 450.57 179.96 449.17C181.37 447.77 183.64 447.78 185.04 449.18L181.22 443.44L176.08 446.03L174.95 451.43L179.96 454.26Z" />
				<path id="&lt;Compound Path&gt;" fill-rule="evenodd" class="shp2" d="M185.73 454.94L178.03 457.01L172.39 451.37L174.46 443.67L182.16 441.6L187.8 447.24L185.73 454.94ZM182.64 451.85C184.04 450.44 184.04 448.18 182.64 446.78C181.24 445.37 178.96 445.36 177.56 446.76C176.15 448.17 176.15 450.45 177.56 451.86C178.96 453.26 181.24 453.25 182.64 451.85Z" />
			</g>
			<g id="&lt;Group&gt;">
				<path id="&lt;Path&gt;" class="shp2" d="M152.73 37.32L159.11 43.71C160.78 45.38 163.5 45.38 165.16 43.71C166.83 42.05 166.83 39.33 165.16 37.66L158.77 31.27C157.11 29.61 154.39 29.61 152.73 31.27C151.06 32.94 151.06 35.66 152.73 37.32Z" />
				<path id="&lt;Path&gt;" class="shp1" d="M148.22 21.41C153.15 19.64 158.48 21.96 160.15 26.58C161.81 31.2 159.16 36.38 154.24 38.15C149.31 39.92 143.97 37.6 142.31 32.98C140.65 28.36 143.3 23.18 148.22 21.41Z" />
				<path id="&lt;Path&gt;" class="shp2" d="M141.26 31.9L142.19 34.48L161.2 27.65L160.27 25.08L141.26 31.9Z" />
			</g>
		</g>
	</g>
	<g id="Shadow">
		<path id="&lt;Path&gt; 373 " class="shp3" d="M887.78 698.48C887.78 710.98 714.16 721.12 500 721.12C285.84 721.12 112.22 710.98 112.22 698.48C112.22 685.97 285.84 675.83 500 675.83C714.16 675.83 887.78 685.97 887.78 698.48Z" />
	</g>
	<g id="Oops!">
		<g id="&lt;Group&gt;">
			<path id="&lt;Compound Path&gt;" fill-rule="evenodd" class="shp4" d="M173.43 107.29C171.43 98.49 172.32 91.07 176.11 85.05C179.91 79.02 186.18 75.02 194.94 73.03C203.92 70.99 211.39 71.82 217.34 75.54C223.29 79.26 227.26 85.46 229.23 94.14C230.67 100.45 230.78 105.86 229.58 110.38C228.37 114.9 226.02 118.74 222.52 121.89C219.02 125.05 214.27 127.31 208.29 128.67C202.2 130.05 196.95 130.23 192.52 129.2C188.09 128.17 184.16 125.83 180.73 122.2C177.3 118.57 174.86 113.6 173.43 107.29ZM190.12 103.58C191.36 109.02 193.26 112.71 195.82 114.63C198.39 116.55 201.41 117.11 204.9 116.32C208.48 115.5 210.99 113.71 212.42 110.93C213.85 108.15 213.88 103.75 212.51 97.71C211.36 92.63 209.49 89.16 206.91 87.28C204.33 85.4 201.28 84.86 197.77 85.66C194.41 86.42 191.98 88.23 190.49 91.07C188.99 93.91 188.87 98.08 190.12 103.58Z" />
			<path id="&lt;Compound Path&gt;" fill-rule="evenodd" class="shp4" d="M237.19 100.69C235.83 94.73 236.73 89.36 239.87 84.58C243.02 79.8 248.01 76.64 254.86 75.08C262.68 73.3 269.11 74.23 274.14 77.86C278.19 80.78 280.82 84.92 282.03 90.27C283.4 96.28 282.53 101.66 279.41 106.4C276.3 111.15 271.22 114.32 264.18 115.92C257.9 117.35 252.46 116.91 247.86 114.6C242.2 111.74 238.64 107.1 237.19 100.69ZM252.19 97.25C252.98 100.73 254.28 103.14 256.07 104.49C257.86 105.84 259.82 106.27 261.95 105.79C264.11 105.29 265.7 104.07 266.71 102.11C267.72 100.15 267.82 97.36 266.99 93.73C266.22 90.34 264.95 87.98 263.17 86.64C261.4 85.3 259.48 84.87 257.42 85.34C255.24 85.83 253.62 87.08 252.58 89.09C251.54 91.09 251.41 93.81 252.19 97.25Z" />
			<path id="&lt;Compound Path&gt;" fill-rule="evenodd" class="shp4" d="M297.17 123.13L284.9 69.18L298.93 65.99L300.24 71.77C301.63 68.9 303.03 66.85 304.45 65.62C306.38 63.98 308.66 62.85 311.31 62.25C316.54 61.06 321.03 62.14 324.8 65.49C328.57 68.84 331.12 73.46 332.46 79.35C333.94 85.85 333.51 91.16 331.17 95.29C328.83 99.43 325.28 102.03 320.52 103.11C318.22 103.64 316.02 103.72 313.94 103.37C311.86 103.02 309.9 102.24 308.05 101.03L312.3 119.69L297.17 123.13ZM304.39 85.42C305.09 88.51 306.26 90.66 307.9 91.86C309.54 93.06 311.36 93.43 313.34 92.98C315.09 92.58 316.38 91.53 317.23 89.83C318.08 88.13 318.12 85.56 317.34 82.12C316.62 78.96 315.48 76.77 313.91 75.57C312.35 74.36 310.68 73.96 308.92 74.36C307 74.8 305.58 75.91 304.64 77.69C303.71 79.48 303.62 82.06 304.39 85.42Z" />
			<path id="&lt;Compound Path&gt;" class="shp4" d="M338.87 86.6L353.42 81.82C354.43 83.44 355.58 84.51 356.86 85.02C358.13 85.53 359.69 85.58 361.53 85.16C363.54 84.7 365.01 83.92 365.91 82.81C366.63 81.98 366.88 81.09 366.66 80.13C366.41 79.05 365.66 78.35 364.4 78.02C363.49 77.78 361.23 77.76 357.61 77.94C352.2 78.21 348.4 78.19 346.2 77.88C344 77.57 341.99 76.65 340.19 75.13C338.39 73.61 337.22 71.67 336.68 69.32C336.1 66.74 336.34 64.35 337.41 62.15C338.49 59.95 340.23 58.09 342.65 56.57C345.07 55.06 348.48 53.8 352.9 52.79C357.56 51.73 361.08 51.31 363.46 51.51C365.85 51.72 367.95 52.4 369.77 53.56C371.6 54.72 373.29 56.46 374.85 58.79L360.96 63.42C360.31 62.25 359.49 61.47 358.5 61.08C357.14 60.56 355.63 60.49 353.96 60.87C352.27 61.26 351.1 61.84 350.47 62.61C349.83 63.39 349.61 64.21 349.8 65.06C350.02 66.02 350.68 66.63 351.77 66.9C352.86 67.17 355.1 67.12 358.47 66.76C363.58 66.2 367.47 66.14 370.12 66.59C372.78 67.04 374.96 68.06 376.68 69.62C378.39 71.19 379.5 73.1 380 75.33C380.52 77.58 380.33 79.93 379.46 82.37C378.58 84.81 376.82 87 374.17 88.93C371.53 90.85 367.68 92.39 362.63 93.54C355.49 95.17 350.17 95.3 346.68 93.96C343.18 92.61 340.58 90.16 338.87 86.6Z" />
			<path id="&lt;Compound Path&gt;" class="shp4" d="M387.7 37.13L404.11 37.04L404.19 49.65L401.16 74.99L391.01 75.04L387.77 49.74L387.7 37.13ZM388.5 78.91L403.82 78.82L403.9 92.37L388.58 92.46L388.5 78.91Z" />
		</g>
	</g>
	<g id="404">
		<g id="&lt;Group&gt;">
			<g id="&lt;Group&gt;">
				<path id="&lt;Compound Path&gt;" fill-rule="evenodd" class="shp4" d="M257.36 209.16C257.24 209.16 257.12 209.14 257 209.09C248 205.61 242.61 202.2 239.81 198.11C237.78 198.52 235.51 198.25 233.35 197.22C231.25 196.22 229.24 194.48 227.79 191.98C226.44 193.02 224.77 193.3 222.94 192.73C220.91 192.09 218.79 190.38 217.03 187.9C215.92 188.71 214.77 188.83 213.93 188.76C207.98 188.28 199.93 176.44 199.35 163.83C199.32 163.28 199.75 162.81 200.3 162.79C200.84 162.74 201.32 163.19 201.35 163.74C201.89 175.71 209.57 186.4 214.09 186.77C214.83 186.84 215.44 186.61 215.95 186.21C213.24 181.45 211.83 174.65 213.91 167.39C215.63 161.38 217.15 159.03 218.97 159.46C222.42 160.32 221.97 173.41 220.14 182.04C219.73 184 219.13 185.4 218.45 186.4C220.03 188.73 221.9 190.3 223.54 190.82C225 191.28 226.08 190.89 226.89 190.13C225.31 186.26 224.99 180.98 227.12 174.25C229.93 165.39 231.06 165.15 231.73 165.01C232.21 164.91 232.69 165.07 233.02 165.45C234.87 167.54 232.66 181.29 230.34 188.1C230.03 188.98 229.66 189.76 229.22 190.41C230.46 192.85 232.29 194.5 234.21 195.41C235.74 196.14 237.32 196.41 238.75 196.28C238.57 195.9 238.41 195.51 238.27 195.12C236.68 190.83 237.46 185.87 240.64 179.97C242.75 176.05 244.47 174.22 246.05 174.22C246.05 174.22 246.05 174.22 246.05 174.22C246.52 174.22 247.4 174.4 248.03 175.55C249.77 178.77 248.51 189.38 245.06 194.65C244.25 195.9 243.13 196.84 241.82 197.45C244.5 200.97 249.59 204.08 257.72 207.23C258.24 207.43 258.49 208.01 258.29 208.52C258.14 208.92 257.76 209.16 257.36 209.16ZM246.05 176.22C246.05 176.22 244.92 176.23 242.4 180.92C239.5 186.29 238.77 190.7 240.14 194.43C240.31 194.88 240.51 195.33 240.74 195.77C241.81 195.31 242.73 194.57 243.39 193.56C246.19 189.28 247.53 180.48 246.49 177.05C246.27 176.34 246.05 176.22 246.05 176.22ZM231.71 167.8C231.19 168.77 230.32 170.77 229.03 174.86C227.31 180.27 227.3 184.62 228.26 187.95C228.32 187.78 228.39 187.62 228.44 187.45C230.8 180.57 231.94 171.1 231.71 167.8ZM218.54 161.5C218.2 161.81 217.23 163.07 215.83 167.94C213.99 174.36 215.13 180.22 217.29 184.43C217.7 183.56 217.99 182.56 218.19 181.63C220.26 171.8 219.66 162.92 218.54 161.5Z" />
				<path id="&lt;Compound Path&gt;" fill-rule="evenodd" class="shp4" d="M333.4 313.99C330.35 313.99 327.14 313.3 324.27 311.62C323.8 311.34 323.64 310.72 323.92 310.25C324.2 309.77 324.81 309.62 325.29 309.89C332.42 314.08 341.64 311.16 343.54 308.11C343.76 307.75 343.96 307.29 343.83 306.76C341.01 307.06 337.54 306.31 333.57 303.83C328.48 300.65 328.09 299.7 328.12 298.95C328.14 298.5 328.4 298.11 328.8 297.9C330.8 296.89 339.81 301.05 343.57 303.52C344.07 303.84 344.48 304.19 344.82 304.56C346.48 304.16 347.77 303.3 348.62 302.27C349.21 301.57 349.6 300.8 349.8 300.03C349.67 300.05 349.53 300.06 349.4 300.08C346.2 300.4 342.99 299.03 339.58 295.87C337.23 293.7 336.32 292.2 336.62 291.02C336.72 290.64 337.03 289.97 338.06 289.71C340.82 289.02 347.65 291.93 350.44 294.99C351.07 295.68 351.5 296.49 351.73 297.36C354.34 296.13 357.1 293.38 360.36 288.82C360.69 288.37 361.31 288.27 361.76 288.59C362.21 288.91 362.31 289.53 361.99 289.98C358.21 295.26 355.06 298.25 351.9 299.47C351.77 300.88 351.19 302.31 350.16 303.55C349.15 304.77 347.67 305.81 345.8 306.38C346 307.28 345.82 308.23 345.24 309.16C343.55 311.88 338.72 313.99 333.4 313.99ZM331.62 300.12C332.29 300.62 333.26 301.28 334.63 302.14C337.35 303.83 339.77 304.62 341.83 304.78C338.52 302.73 334.18 300.91 331.62 300.12ZM338.6 291.63C338.71 291.94 339.16 292.76 340.93 294.4C343.91 297.15 346.61 298.37 349.19 298.09C349.41 298.07 349.62 298.04 349.83 297.99C349.69 297.38 349.4 296.82 348.97 296.34C346.15 293.26 339.97 291.3 338.6 291.63Z" />
				<path id="&lt;Compound Path&gt;" fill-rule="evenodd" class="shp5" d="M369.81 365.41L338.64 371.07L347.25 418.03L287.12 428.96L278.52 381.99L152.84 404.82L142.32 347.41L240.3 173.41L300.43 162.49L328.72 316.91L359.88 311.25L369.81 365.41ZM268.59 327.83L254.11 248.76L202.19 339.9L268.59 327.83Z" />
			</g>
			<g id="&lt;Group&gt;">
				<path id="&lt;Compound Path&gt;" class="shp5" d="M610.86 151.98C609.7 141.32 607.57 131.84 604.47 123.55C601.37 115.26 596.71 107.13 590.49 99.17C584.27 91.21 575.8 84.3 565.08 78.44C554.36 72.58 540.21 68.5 522.63 66.21C486.05 61.44 457.53 67.94 437.07 85.69C416.61 103.45 403.15 137.45 396.67 187.71C394.04 208.16 393.39 227.05 394.72 244.4C396.05 261.75 399.23 275.71 404.28 286.27C411.18 301.11 420.95 312.96 433.57 321.81C446.2 330.67 463.5 336.53 485.47 339.4C524.67 344.5 553.71 336.98 572.61 316.82C591.51 296.67 604.05 262.6 610.22 214.62C612.98 193.22 613.19 172.34 610.86 151.98Z" />
				<path id="&lt;Path&gt;" class="shp4" d="M503.53 318.87C498.72 318.7 493.6 318.27 488.32 317.58C470.01 315.19 455.84 310.56 446.21 303.8C436.71 297.14 429.52 288.37 424.23 276.99L424.13 276.78C420.28 268.74 417.77 257.28 416.66 242.73C415.45 226.95 416.07 209.39 418.49 190.52C425.63 135.08 440.38 111.95 451.49 102.31C464.44 91.07 481.93 85.99 504.95 86.78C509.66 86.94 514.66 87.36 519.79 88.03C534.56 89.95 546.25 93.22 554.53 97.74C562.55 102.13 568.81 107.16 573.15 112.71C577.96 118.87 581.56 125.1 583.86 131.25C586.3 137.79 588.03 145.57 588.99 154.37C591.12 172.99 590.92 192.27 588.4 211.81C582.86 254.89 572.14 285.16 556.56 301.77C545.01 314.1 527.66 319.69 503.54 318.87C503.53 318.87 503.53 318.87 503.53 318.87Z" />
				<g id="&lt;Group&gt;">
					<path id="&lt;Compound Path&gt;" fill-rule="evenodd" class="shp5" d="M537.93 153.77C537.56 156.36 536.95 158.86 536.17 161.28L539.9 164.45L536.75 171.36L531.91 170.64C530.59 172.85 529.08 174.94 527.41 176.89L529.64 181.26L524.08 186.44L519.89 183.91C517.81 185.44 515.64 186.81 513.34 187.99L513.72 192.87L506.6 195.52L503.69 191.6C501.23 192.22 498.69 192.63 496.09 192.84L494.59 197.49L486.99 197.23L485.81 192.49C483.22 192.1 480.72 191.52 478.31 190.73L475.12 194.45L468.2 191.31L468.93 186.47C466.71 185.13 464.62 183.62 462.68 181.95L458.32 184.18L453.13 178.64L455.65 174.43C454.12 172.37 452.76 170.18 451.59 167.88L446.72 168.28L444.04 161.16L447.98 158.25C447.37 155.79 446.93 153.26 446.74 150.65L442.07 149.13L442.33 141.55L447.09 140.35C447.46 137.79 448.07 135.26 448.85 132.85L445.12 129.68L448.28 122.76L453.12 123.49C454.43 121.27 455.94 119.18 457.61 117.24L455.38 112.86L460.94 107.69L465.14 110.21C467.19 108.68 469.38 107.32 471.68 106.14L471.29 101.26L478.4 98.6L481.33 102.52C483.79 101.91 486.33 101.49 488.94 101.28L490.44 96.63L498.03 96.89L499.21 101.64C501.8 102.02 504.3 102.61 506.72 103.39L509.88 99.68L516.8 102.82L516.09 107.66C518.31 108.99 520.38 110.51 522.34 112.17L526.7 109.94L531.9 115.48L529.37 119.7C530.9 121.75 532.27 123.94 533.43 126.24L538.31 125.85L540.98 132.96L537.04 135.87C537.66 138.33 538.09 140.89 538.28 143.48L542.93 145L542.67 152.57L537.93 153.77ZM522.55 148.1C523.12 131.49 510.13 117.58 493.54 117.01C476.95 116.44 463.04 129.43 462.47 146.04C461.9 162.63 474.89 176.55 491.48 177.12C508.07 177.68 521.99 164.69 522.55 148.1Z" />
				</g>
				<g id="&lt;Group&gt;">
					<path id="&lt;Compound Path&gt;" fill-rule="evenodd" class="shp6" d="M570.95 292.3C570.56 293.97 570.06 295.61 569.4 297.25L571.75 299.58L569.28 304.08L566.05 303.36C565.02 304.8 563.9 306.12 562.69 307.34L563.99 310.41L559.97 313.62L557.27 311.7C555.79 312.63 554.24 313.42 552.65 314.09L552.65 317.41L547.73 318.86L545.96 316.04C544.24 316.33 542.5 316.51 540.77 316.52L539.52 319.59L534.41 319.01L533.84 315.74C532.17 315.36 530.5 314.85 528.89 314.19L526.54 316.54L522.04 314.07L522.78 310.82C521.34 309.81 520.02 308.69 518.8 307.48L515.71 308.78L512.5 304.76L514.42 302.04C513.49 300.58 512.7 299.03 512.03 297.44L508.7 297.44L507.26 292.5L510.08 290.73C509.79 289.03 509.61 287.29 509.62 285.56L506.56 284.29L507.1 279.18L510.38 278.64C510.76 276.94 511.29 275.3 511.95 273.66L509.6 271.33L512.07 266.83L515.3 267.55C516.31 266.11 517.45 264.79 518.64 263.57L517.36 260.5L521.36 257.29L524.08 259.21C525.56 258.28 527.11 257.49 528.7 256.82L528.67 253.49L533.62 252.05L535.39 254.87C537.11 254.58 538.82 254.4 540.58 254.39L541.83 251.32L546.94 251.9L547.51 255.17C549.18 255.55 550.85 256.06 552.46 256.74L554.81 254.37L559.31 256.84L558.57 260.09C560.01 261.1 561.33 262.22 562.55 263.43L565.62 262.16L568.83 266.15L566.93 268.87C567.86 270.33 568.65 271.88 569.32 273.49L572.65 273.47L574.07 278.41L571.27 280.18C571.56 281.88 571.71 283.62 571.72 285.37L574.79 286.62L574.25 291.73L570.95 292.3ZM544.96 277.64C540.64 275.27 535.22 276.84 532.85 281.16C530.48 285.48 532.05 290.92 536.37 293.29C540.69 295.66 546.13 294.07 548.5 289.75C550.87 285.43 549.28 280.02 544.96 277.64Z" />
				</g>
				<path id="&lt;Compound Path&gt;" fill-rule="evenodd" class="shp7" d="M602.15 217.96L595.91 221.66C595.91 221.66 595.91 221.66 595.91 221.66C595.18 223.78 594.24 225.81 593.1 227.71L594.21 233.79L584.95 242.44L578.98 240.92C578.98 240.92 578.98 240.92 578.98 240.92C577 241.91 574.92 242.73 572.73 243.32L568.61 249.27L555.95 248.84L552.25 242.62C552.25 242.62 552.25 242.62 552.25 242.62C550.1 241.88 548.08 240.92 546.17 239.79L540.12 240.9L531.47 231.64L533 225.67C533 225.66 533 225.66 533 225.66C531.98 223.69 531.19 221.61 530.6 219.43L524.64 215.31L525.07 202.64L531.3 198.94C532.04 196.82 532.97 194.8 534.12 192.89C534.12 192.89 534.12 192.89 534.12 192.89L533.01 186.81L542.27 178.17L548.26 179.69C550.22 178.7 552.3 177.89 554.46 177.3C554.47 177.3 554.48 177.3 554.49 177.29L558.6 171.33L571.27 171.77L574.97 178C574.97 178 574.98 178 574.98 178C577.1 178.74 579.13 179.69 581.01 180.82L587.1 179.7L595.74 188.96L594.22 194.96C595.21 196.92 596.02 199 596.61 201.17C596.62 201.17 596.62 201.18 596.62 201.18L602.58 205.3L602.15 217.96ZM577.84 210.8C578.11 202.92 571.96 196.34 564.09 196.07C556.22 195.8 549.64 201.95 549.37 209.82C549.1 217.67 555.25 224.28 563.12 224.55C570.99 224.82 577.58 218.65 577.84 210.8Z" />
				<path id="&lt;Compound Path&gt;" fill-rule="evenodd" class="shp5" d="M641.4 105.09L639.55 103.09C639.55 103.09 639.55 103.09 639.55 103.09C638.71 102.99 637.9 102.8 637.11 102.53L634.96 103.42L631.06 100.7L631.15 98.39C631.15 98.39 631.15 98.39 631.15 98.39C630.63 97.74 630.16 97.04 629.77 96.28L627.26 95.24L626.42 90.56L628.42 88.71C628.42 88.71 628.42 88.71 628.42 88.71C628.52 87.86 628.71 87.04 628.98 86.25L628.09 84.12L630.81 80.21L633.13 80.3C633.13 80.3 633.13 80.3 633.13 80.3C633.77 79.77 634.47 79.32 635.23 78.93L636.27 76.42L640.96 75.58L642.8 77.58C643.64 77.68 644.46 77.86 645.25 78.13C645.25 78.13 645.25 78.13 645.25 78.13L647.39 77.25L651.3 79.97L651.21 82.29C651.73 82.93 652.19 83.63 652.58 84.38C652.58 84.38 652.58 84.38 652.58 84.38L655.09 85.43L655.93 90.11L653.93 91.96C653.93 91.96 653.93 91.96 653.93 91.97C653.83 92.8 653.64 93.62 653.38 94.4L654.26 96.55L651.54 100.45L649.22 100.36C648.58 100.88 647.88 101.35 647.13 101.73C647.13 101.73 647.13 101.73 647.13 101.74L646.08 104.25L641.4 105.09ZM642.12 95.6C645.03 95.08 646.96 92.3 646.44 89.39C645.92 86.48 643.15 84.54 640.23 85.07C637.33 85.58 635.39 88.36 635.91 91.27C636.43 94.19 639.22 96.12 642.12 95.6Z" />
				<path id="&lt;Path&gt;" class="shp5" d="M591.21 90.98L589.69 89.69C592.34 86.55 596.11 82.56 601.7 79.63L602.63 81.4C596.67 84.53 592.85 89.05 591.21 90.98Z" />
				<path id="&lt;Path&gt;" class="shp5" d="M607.18 79.6L606.39 77.76C613.96 74.52 621.86 73.26 629.87 74L629.68 76C622 75.26 614.44 76.49 607.18 79.6Z" />
				<path id="&lt;Path&gt;" class="shp5" d="M603.41 93.44L601.75 92.31C605.86 86.28 613.98 81.03 621.5 79.54L621.88 81.5C614.84 82.9 607.24 87.81 603.41 93.44Z" />
				<path id="&lt;Compound Path&gt;" fill-rule="evenodd" class="shp7" d="M470.69 285.91C470.42 285.91 470.16 285.81 469.97 285.61L465.77 281.29C463.64 281.09 461.53 280.69 459.48 280.12L452.95 283C452.64 283.14 452.28 283.1 451.99 282.92L441.04 275.66C440.76 275.47 440.59 275.15 440.59 274.81L440.7 267.68C439.37 266.03 438.19 264.23 437.17 262.33L431.56 260.15C431.24 260.03 431.01 259.75 430.94 259.42L428.33 246.55C428.26 246.21 428.37 245.87 428.62 245.63L432.94 241.44C433.14 239.31 433.53 237.2 434.11 235.14L431.23 228.61C431.09 228.3 431.12 227.94 431.31 227.65L438.57 216.7C438.75 216.42 439.02 216.24 439.42 216.25L446.54 216.36C448.21 215.03 450.01 213.84 451.9 212.83L454.07 207.22C454.2 206.9 454.47 206.67 454.81 206.6L467.68 203.99C468.02 203.93 468.36 204.03 468.6 204.27L472.79 208.59C474.91 208.79 477.03 209.19 479.09 209.76L485.62 206.88C485.93 206.75 486.29 206.78 486.57 206.97L497.52 214.22C497.81 214.41 497.98 214.73 497.97 215.07L497.86 222.2C499.19 223.86 500.38 225.66 501.39 227.55L507 229.73C507.32 229.86 507.56 230.13 507.62 230.46L510.23 243.34C510.3 243.67 510.19 244.02 509.95 244.26L505.63 248.45C505.43 250.55 505.04 252.66 504.46 254.74L507.34 261.28C507.48 261.59 507.45 261.95 507.26 262.23L500 273.18C499.81 273.46 499.51 273.61 499.15 273.63L492.03 273.52C490.37 274.85 488.57 276.03 486.67 277.04L484.49 282.66C484.37 282.98 484.09 283.21 483.76 283.28L470.88 285.89C470.82 285.91 470.75 285.91 470.69 285.91ZM459.41 278.05C459.51 278.05 459.6 278.07 459.69 278.1C461.84 278.72 464.06 279.14 466.32 279.33C466.56 279.35 466.78 279.45 466.95 279.63L471.02 283.83L482.83 281.43L484.95 275.97C485.03 275.74 485.2 275.55 485.42 275.44C487.42 274.4 489.32 273.15 491.05 271.74C491.23 271.59 491.43 271.49 491.69 271.52L498.63 271.62L505.29 261.58L502.48 255.21C502.38 255 502.37 254.76 502.44 254.53C503.07 252.35 503.48 250.12 503.67 247.91C503.69 247.67 503.79 247.44 503.97 247.27L508.17 243.2L505.77 231.4L500.32 229.28C500.09 229.19 499.9 229.02 499.79 228.8C498.75 226.8 497.5 224.91 496.08 223.19C495.93 223 495.85 222.77 495.86 222.54L495.96 215.59L485.92 208.94L479.57 211.74C479.36 211.83 479.12 211.85 478.89 211.78C476.72 211.15 474.49 210.74 472.24 210.55C472 210.53 471.78 210.42 471.61 210.25L467.54 206.06L455.74 208.45L453.63 213.91C453.54 214.13 453.37 214.32 453.15 214.43C451.16 215.47 449.27 216.72 447.52 218.14C447.34 218.29 447.09 218.39 446.87 218.37L439.93 218.26L433.28 228.3L436.08 234.66C436.2 234.93 436.19 235.25 436.06 235.51C435.5 237.51 435.08 239.74 434.9 241.98C434.88 242.22 434.77 242.44 434.6 242.61L430.4 246.68L432.79 258.49L438.24 260.6C438.49 260.69 438.68 260.88 438.79 261.11C439.83 263.1 441.07 264.98 442.48 266.7C442.63 266.88 442.71 267.11 442.71 267.35L442.6 274.29L452.64 280.95L459.01 278.14C459.14 278.08 459.27 278.05 459.41 278.05ZM469.25 271.58C464.19 271.58 459.08 270.15 454.56 267.16C448.63 263.22 444.58 257.22 443.17 250.24C441.75 243.27 443.13 236.16 447.06 230.22C447.07 230.22 447.07 230.22 447.07 230.22C455.2 217.97 471.77 214.61 484.01 222.72C496.26 230.85 499.61 247.42 491.5 259.67C486.38 267.4 477.89 271.58 469.25 271.58ZM448.73 231.33C445.1 236.81 443.81 243.39 445.13 249.84C446.44 256.3 450.18 261.85 455.67 265.49C467 273 482.33 269.89 489.83 258.56C497.34 247.24 494.23 231.9 482.91 224.39C471.58 216.88 456.25 220 448.73 231.33Z" />
			</g>
			<g id="&lt;Group&gt;">
				<path id="&lt;Compound Path&gt;" fill-rule="evenodd" class="shp5" d="M844.37 383.88L812.98 379.64L806.67 426.97L746.11 418.79L752.42 371.47L625.84 354.39L633.56 296.53L780.46 161.27L841.02 169.45L820.26 325.06L851.65 329.3L844.37 383.88ZM759.7 316.89L770.33 237.21L692.82 307.86L759.7 316.89Z" />
				<path id="&lt;Path&gt;" class="shp4" d="M788.27 425.48C788.21 425.48 788.15 425.48 788.09 425.47C787.54 425.37 787.18 424.85 787.28 424.3L833.94 168.44C834.03 167.9 834.56 167.56 835.1 167.64C835.64 167.74 836 168.26 835.9 168.8L789.25 424.66C789.16 425.14 788.74 425.48 788.27 425.48Z" />
				<g id="&lt;Group&gt;">
					<path id="&lt;Path&gt;" class="shp4" d="M829.66 172.74C829.63 173.64 828.87 174.35 827.97 174.32C827.06 174.29 826.36 173.53 826.39 172.63C826.42 171.72 827.18 171.01 828.08 171.05C828.99 171.08 829.69 171.83 829.66 172.74Z" />
					<path id="&lt;Path&gt;" class="shp4" d="M823 207.34C822.97 208.25 822.21 208.95 821.3 208.92C820.4 208.89 819.69 208.13 819.72 207.23C819.75 206.32 820.51 205.62 821.42 205.65C822.32 205.68 823.03 206.44 823 207.34Z" />
					<path id="&lt;Path&gt;" class="shp4" d="M816.33 241.94C816.3 242.85 815.54 243.56 814.64 243.52C813.73 243.49 813.03 242.74 813.06 241.83C813.09 240.93 813.85 240.22 814.75 240.25C815.66 240.28 816.36 241.04 816.33 241.94Z" />
					<path id="&lt;Path&gt;" class="shp4" d="M803.23 277.96C803.2 278.87 802.44 279.58 801.53 279.55C800.63 279.51 799.92 278.76 799.95 277.85C799.98 276.95 800.74 276.24 801.64 276.27C802.55 276.3 803.26 277.06 803.23 277.96Z" />
					<path id="&lt;Path&gt;" class="shp4" d="M803 311.15C802.97 312.05 802.21 312.76 801.31 312.73C800.4 312.7 799.7 311.94 799.73 311.03C799.76 310.13 800.52 309.42 801.42 309.45C802.33 309.48 803.03 310.24 803 311.15Z" />
					<path id="&lt;Path&gt;" class="shp4" d="M796.34 345.75C796.31 346.65 795.55 347.36 794.64 347.33C793.74 347.3 793.03 346.54 793.06 345.64C793.09 344.73 793.85 344.02 794.76 344.05C795.66 344.08 796.37 344.84 796.34 345.75Z" />
					<path id="&lt;Path&gt;" class="shp4" d="M789.67 380.35C789.64 381.25 788.88 381.96 787.98 381.93C787.07 381.9 786.37 381.14 786.4 380.24C786.43 379.33 787.19 378.62 788.09 378.66C789 378.69 789.7 379.44 789.67 380.35Z" />
					<path id="&lt;Path&gt;" class="shp4" d="M783.01 414.95C782.98 415.86 782.22 416.56 781.31 416.53C780.41 416.5 779.7 415.74 779.73 414.84C779.76 413.93 780.52 413.23 781.43 413.26C782.33 413.29 783.04 414.05 783.01 414.95Z" />
				</g>
				<path id="&lt;Path&gt;" class="shp4" d="M801.59 278.91C801.13 278.91 800.71 278.59 800.61 278.12C800.5 277.58 800.84 277.05 801.38 276.93L806.35 275.86C806.89 275.76 807.42 276.09 807.53 276.63C807.65 277.17 807.31 277.7 806.77 277.82L801.8 278.89C801.73 278.9 801.66 278.91 801.59 278.91Z" />
				<g id="&lt;Group&gt;">
					<path id="&lt;Path&gt;" class="shp4" d="M818.17 260.48C815.19 268.25 813.19 274.49 812.19 279.2C811.18 283.91 810.65 291.53 810.59 302.05" />
					<path id="&lt;Path&gt;" class="shp4" d="M810.59 303.05C810.59 303.05 810.59 303.05 810.58 303.05C810.03 303.05 809.59 302.6 809.59 302.05C809.59 301.4 809.7 286.08 811.21 278.99C812.72 271.94 817.05 260.6 817.24 260.12C817.43 259.61 818.01 259.35 818.53 259.55C819.04 259.75 819.3 260.33 819.1 260.84C819.06 260.96 814.64 272.51 813.17 279.41C811.7 286.3 811.59 301.9 811.59 302.06C811.59 302.61 811.14 303.05 810.59 303.05Z" />
				</g>
			</g>
		</g>
	</g>
	<g id="Character">
		<g id="&lt;Group&gt;">
			<path id="&lt;Path&gt;" class="shp4" d="M444.9 475.68C447.68 430.88 442.57 349.43 526.79 360.21C586.97 367.91 608.45 406.95 591.24 477.32L444.9 475.68Z" />
			<g id="&lt;Group&gt;">
				<path id="&lt;Path&gt;" class="shp7" d="M539.78 412C539.78 432.3 523.32 448.75 503.03 448.75C482.73 448.75 466.28 432.3 466.28 412C466.28 391.7 482.73 375.25 503.03 375.25C523.32 375.25 539.78 391.7 539.78 412Z" />
				<path id="&lt;Path&gt;" class="shp4" d="M507.85 375.31C490.45 372.33 471.83 385.17 470 398.17L539.01 404.51C536.58 389.69 521.67 377.67 507.85 375.31Z" />
				<path id="&lt;Path&gt;" class="shp4" d="M531.15 411.09C530.66 420.69 525.42 428.23 519.46 427.93C513.49 427.62 509.05 419.58 509.55 409.98C510.04 400.37 515.28 392.83 521.24 393.13C527.21 393.44 531.65 401.48 531.15 411.09Z" />
				<path id="&lt;Compound Path&gt;" fill-rule="evenodd" class="shp5" d="M503.03 450.75C481.66 450.75 464.28 433.37 464.28 412C464.28 390.63 481.66 373.25 503.03 373.25C524.39 373.25 541.78 390.63 541.78 412C541.78 433.37 524.39 450.75 503.03 450.75ZM503.03 377.25C483.87 377.25 468.28 392.84 468.28 412C468.28 431.16 483.87 446.75 503.03 446.75C522.19 446.75 537.78 431.16 537.78 412C537.78 392.84 522.19 377.25 503.03 377.25Z" />
			</g>
			<path id="&lt;Path&gt;" class="shp8" d="M580.97 474.55C580.89 474.55 580.81 474.55 580.74 474.53C580.2 474.4 579.87 473.86 580 473.32C580.06 473.05 586.44 445.93 579.82 418.51C579.69 417.98 580.02 417.44 580.55 417.31C581.08 417.19 581.63 417.51 581.76 418.05C588.5 445.95 582.01 473.51 581.94 473.79C581.83 474.25 581.42 474.55 580.97 474.55Z" />
			<path id="&lt;Path&gt;" class="shp8" d="M575.4 403.52C575.02 403.52 574.65 403.3 574.49 402.93C571.92 397.32 568.72 392.17 565 387.62C564.65 387.19 564.72 386.56 565.14 386.21C565.57 385.86 566.2 385.92 566.55 386.35C570.38 391.04 573.66 396.33 576.3 402.1C576.54 402.6 576.31 403.2 575.81 403.43C575.68 403.49 575.54 403.52 575.4 403.52Z" />
			<path id="&lt;Path&gt;" class="shp4" d="M257.47 685.84C257.22 685.84 256.97 685.83 256.73 685.83C251.2 685.67 246.85 681.08 247 675.55C247.15 670.04 251.7 665.77 257.27 665.83C257.34 665.84 257.4 665.84 257.47 665.84C263.24 665.84 277.14 658.82 306.22 612.98C307.79 610.52 310.34 608.86 313.23 608.44C316.12 608.03 319.04 608.88 321.24 610.8C357.12 642.08 395.15 661.56 395.53 661.75C400.45 664.25 402.41 670.27 399.92 675.19C397.42 680.12 391.4 682.09 386.48 679.58C384.97 678.82 351.73 661.82 316.88 633.29C292.51 669.93 274.42 685.84 257.47 685.84Z" />
			<path id="&lt;Path&gt;" class="shp4" d="M319.34 609C319.06 609 318.77 608.98 318.48 608.94C315.2 608.47 312.92 605.43 313.39 602.15C314.82 592.2 313.05 554.9 300.44 525.9C299.3 523.26 300.19 520.17 302.57 518.55C329.96 499.88 388.32 497.64 390.79 497.56C394.09 497.49 396.88 500.04 397 503.35C397.11 506.66 394.52 509.44 391.21 509.55C390.67 509.57 339.65 511.53 313.43 525.95C324.6 554.83 327.13 590.83 325.27 603.85C324.84 606.84 322.28 609 319.34 609Z" />
			<path id="&lt;Path&gt;" class="shp5" d="M329.42 601.23C325.43 591.82 307.44 592.89 296.88 600.96C291.24 605.27 283.6 618.24 282.8 622.94C282 627.64 285.25 631.9 290.85 631.41C295.44 631.02 300.9 627.48 307.21 620.8C300.91 626.97 309.04 631.33 321.16 622.4C327.89 617.44 333.89 611.77 329.42 601.23Z" />
			<path id="&lt;Compound Path&gt;" fill-rule="evenodd" class="shp4" d="M673.41 478.32C673.32 478.32 673.23 478.31 673.13 478.28C672.6 478.13 672.3 477.58 672.45 477.05C675.11 467.77 678.02 462.1 681.85 458.95C681.26 456.95 681.33 454.67 682.16 452.43C682.96 450.25 684.51 448.09 686.88 446.42C685.72 445.17 685.29 443.53 685.7 441.65C686.15 439.57 687.67 437.31 689.97 435.34C689.07 434.3 688.84 433.17 688.84 432.33C688.79 426.36 699.85 417.28 712.36 415.57C712.91 415.47 713.41 415.88 713.49 416.42C713.56 416.97 713.18 417.47 712.63 417.55C700.76 419.17 690.8 427.77 690.84 432.31C690.84 433.05 691.12 433.64 691.56 434.12C696.06 430.98 702.71 428.96 710.13 430.39C716.26 431.56 718.76 432.86 718.47 434.72C717.93 438.23 704.85 438.95 696.09 437.91C694.11 437.67 692.65 437.2 691.59 436.62C689.41 438.4 688.02 440.4 687.65 442.08C687.33 443.58 687.81 444.62 688.64 445.35C692.36 443.44 697.58 442.64 704.47 444.16C713.55 446.16 713.89 447.27 714.09 447.93C714.24 448.4 714.12 448.88 713.77 449.25C711.86 451.28 697.96 450.32 690.97 448.61C690.06 448.38 689.26 448.08 688.57 447.7C686.25 449.16 684.77 451.13 684.03 453.12C683.44 454.71 683.31 456.3 683.58 457.72C683.94 457.51 684.31 457.31 684.68 457.13C688.82 455.17 693.83 455.5 699.99 458.14C704.08 459.89 706.05 461.44 706.2 463.02C706.24 463.48 706.15 464.38 705.06 465.1C702.01 467.13 691.32 466.82 685.76 463.86C684.45 463.16 683.41 462.13 682.68 460.89C679.42 463.87 676.78 469.22 674.37 477.6C674.25 478.04 673.85 478.32 673.41 478.32ZM684.26 459.66C684.81 460.68 685.64 461.53 686.7 462.09C691.21 464.5 700.09 465.05 703.42 463.7C704.11 463.43 704.21 463.2 704.21 463.2C704.21 463.19 704.1 462.07 699.2 459.98C693.6 457.58 689.13 457.24 685.54 458.94C685.11 459.15 684.68 459.39 684.26 459.66ZM690.93 446.52C691.1 446.57 691.28 446.62 691.45 446.66C698.51 448.39 708.04 448.69 711.31 448.15C710.3 447.72 708.23 447.04 704.04 446.12C698.5 444.89 694.16 445.27 690.93 446.52ZM693.45 435.28C694.35 435.62 695.38 435.81 696.33 435.93C706.29 437.11 715.09 435.71 716.41 434.47C716.07 434.16 714.73 433.3 709.75 432.35C703.18 431.1 697.45 432.75 693.45 435.28Z" />
			<path id="&lt;Path&gt;" class="shp4" d="M413.06 682.5C414.37 682.07 413.93 680.8 412.46 680.8L385.38 680.8C333.82 675.34 297.79 682.66 320.5 684.39C343.2 686.11 318.9 685.75 302.32 692.02C285.74 698.29 425.63 699.87 438.35 692.02C450.08 684.78 394.78 688.35 413.06 682.5Z" />
			<path id="&lt;Path&gt;" class="shp5" d="M606.94 690.48L371.33 682.67L361.56 454.22L639.78 460.44L606.94 690.48Z" />
			<path id="&lt;Path&gt;" class="shp4" d="M444.9 686.11C444.39 686.11 443.95 685.71 443.91 685.19L425.02 455.75C424.98 455.2 425.38 454.71 425.94 454.67C426.5 454.64 426.97 455.03 427.01 455.58L445.9 685.02C445.95 685.57 445.54 686.06 444.99 686.1C444.96 686.1 444.93 686.11 444.9 686.11Z" />
			<g id="&lt;Group&gt;">
				<path id="&lt;Path&gt;" class="shp5" d="M606.94 690.48L670.26 680.84L690.21 468.42L639.78 460.44L606.94 690.48Z" />
				<path id="&lt;Path&gt;" class="shp9" d="M606.94 690.48L670.26 680.84L690.21 468.42L639.78 460.44L606.94 690.48Z" />
			</g>
			<path id="&lt;Path&gt;" class="shp4" d="M391.47 638.63L385.66 502.91C385.05 488.74 396.55 477.01 410.72 477.33L586.84 481.27C601.55 481.6 612.66 494.7 610.58 509.27L591.06 646.05C589.29 658.44 578.47 667.52 565.95 667.1L415.17 662.11C402.35 661.68 392.02 651.45 391.47 638.63Z" />
			<g id="&lt;Group&gt;">
				<path id="&lt;Compound Path&gt;" class="shp7" d="M410.49 518.98L437.74 519.84L437.52 526.87L420.46 526.33L420.29 531.56L436.12 532.06L435.9 538.77L420.08 538.27L419.87 544.75L437.43 545.31L437.19 552.76L409.45 551.88L410.49 518.98Z" />
				<path id="&lt;Compound Path&gt;" fill-rule="evenodd" class="shp7" d="M442.8 552.94L443.85 520.04L460.79 520.58C463.93 520.68 466.33 521.02 467.97 521.61C469.62 522.21 470.92 523.25 471.89 524.74C472.87 526.23 473.32 528.02 473.25 530.12C473.19 531.94 472.75 533.51 471.93 534.81C471.11 536.1 470.01 537.14 468.62 537.92C467.73 538.42 466.53 538.82 465.01 539.11C466.2 539.56 467.07 539.99 467.61 540.41C467.98 540.69 468.5 541.28 469.19 542.19C469.87 543.1 470.32 543.79 470.55 544.28L475.17 553.97L463.68 553.61L458.56 543.38C457.91 542.06 457.33 541.19 456.8 540.78C456.08 540.25 455.26 539.97 454.33 539.94L453.44 539.91L453.01 553.27L442.8 552.94ZM453.64 533.7L457.92 533.83C458.39 533.85 459.29 533.73 460.63 533.47C461.31 533.36 461.87 533.03 462.31 532.49C462.76 531.95 462.99 531.32 463.01 530.6C463.05 529.54 462.74 528.71 462.08 528.12C461.42 527.53 460.17 527.21 458.31 527.15L453.85 527.01L453.64 533.7Z" />
				<path id="&lt;Compound Path&gt;" fill-rule="evenodd" class="shp7" d="M478.55 554.08L479.6 521.18L496.55 521.71C499.69 521.81 502.08 522.16 503.73 522.75C505.37 523.34 506.68 524.39 507.65 525.88C508.62 527.37 509.07 529.16 509 531.25C508.95 533.08 508.51 534.64 507.69 535.94C506.87 537.24 505.76 538.28 504.37 539.06C503.49 539.56 502.28 539.95 500.76 540.25C501.96 540.69 502.83 541.13 503.37 541.55C503.73 541.83 504.26 542.42 504.94 543.33C505.62 544.24 506.08 544.93 506.3 545.42L510.92 555.11L499.43 554.74L494.32 544.52C493.67 543.19 493.08 542.33 492.56 541.92C491.84 541.39 491.02 541.11 490.09 541.08L489.19 541.05L488.77 554.4L478.55 554.08ZM489.39 534.83L493.68 534.97C494.14 534.98 495.04 534.86 496.38 534.61C497.06 534.49 497.62 534.17 498.07 533.63C498.51 533.09 498.74 532.46 498.77 531.74C498.8 530.68 498.49 529.85 497.83 529.26C497.18 528.67 495.92 528.35 494.07 528.29L489.6 528.14L489.39 534.83Z" />
				<path id="&lt;Compound Path&gt;" fill-rule="evenodd" class="shp7" d="M512.63 538.72C512.8 533.35 514.43 529.21 517.52 526.31C520.61 523.42 524.82 522.05 530.16 522.22C535.64 522.4 539.81 524 542.68 527.04C545.55 530.07 546.9 534.24 546.73 539.53C546.61 543.38 545.86 546.51 544.49 548.93C543.12 551.35 541.19 553.21 538.7 554.5C536.21 555.79 533.14 556.38 529.49 556.26C525.78 556.14 522.72 555.46 520.33 554.2C517.93 552.94 516.02 551 514.59 548.4C513.16 545.79 512.51 542.56 512.63 538.72ZM522.8 539.09C522.69 542.41 523.23 544.81 524.42 546.31C525.61 547.8 527.27 548.57 529.39 548.64C531.58 548.71 533.29 548.06 534.53 546.67C535.77 545.29 536.45 542.76 536.57 539.07C536.67 535.98 536.12 533.69 534.91 532.23C533.71 530.76 532.04 529.99 529.9 529.92C527.85 529.86 526.18 530.53 524.89 531.94C523.6 533.35 522.9 535.74 522.8 539.09Z" />
				<path id="&lt;Compound Path&gt;" fill-rule="evenodd" class="shp7" d="M551.81 556.41L552.86 523.51L569.81 524.05C572.95 524.15 575.34 524.49 576.99 525.08C578.63 525.67 579.94 526.72 580.91 528.21C581.88 529.7 582.33 531.49 582.26 533.59C582.21 535.41 581.77 536.97 580.95 538.27C580.13 539.57 579.02 540.61 577.63 541.39C576.75 541.89 575.54 542.28 574.02 542.58C575.22 543.02 576.09 543.46 576.63 543.88C576.99 544.16 577.52 544.75 578.2 545.66C578.88 546.57 579.34 547.26 579.56 547.75L584.18 557.44L572.69 557.08L567.58 546.85C566.93 545.52 566.34 544.66 565.82 544.25C565.1 543.72 564.28 543.44 563.35 543.41L562.45 543.38L562.03 556.74L551.81 556.41ZM562.65 537.16L566.94 537.3C567.4 537.32 568.3 537.19 569.64 536.94C570.32 536.82 570.88 536.5 571.33 535.96C571.77 535.42 572 534.79 572.03 534.07C572.06 533.01 571.75 532.18 571.09 531.59C570.44 531 569.18 530.68 567.33 530.62L562.86 530.48L562.65 537.16Z" />
			</g>
			<path id="&lt;Path&gt;" class="shp7" d="M568 612.32C567.29 612.32 566.58 612.03 566.06 611.46L548.94 592.72L530.46 609.6C529.39 610.58 527.73 610.51 526.75 609.44L509.63 590.7L491.16 607.58C490.09 608.56 488.43 608.48 487.45 607.41L470.33 588.67L451.86 605.55C451.34 606.03 450.65 606.27 449.97 606.24C449.27 606.21 448.62 605.9 448.15 605.39L431.03 586.65L412.55 603.53C411.48 604.51 409.82 604.43 408.84 603.36C407.87 602.29 407.94 600.63 409.01 599.65L429.42 581C430.49 580.02 432.15 580.1 433.13 581.17L450.25 599.91L468.73 583.03C469.24 582.56 469.93 582.31 470.62 582.34C471.31 582.37 471.97 582.68 472.44 583.19L489.56 601.93L508.03 585.05C509.1 584.07 510.76 584.15 511.74 585.22L528.86 603.96L547.33 587.08C548.4 586.1 550.06 586.17 551.04 587.24L569.94 607.92C570.91 608.99 570.84 610.65 569.77 611.63C569.26 612.09 568.63 612.32 568 612.32Z" />
			<g id="&lt;Group&gt;">
				<path id="&lt;Path&gt;" class="shp5" d="M251.5 695.33L238.98 689.36L227.82 635.03L233.88 628.36L251.5 695.33Z" />
				<g id="&lt;Group&gt;">
					<path id="&lt;Path&gt;" class="shp5" d="M251.5 695.33L268.11 685.63L253.87 640.86L233.88 628.36L251.5 695.33Z" />
					<path id="&lt;Path&gt;" class="shp9" d="M251.5 695.33L268.11 685.63L253.87 640.86L233.88 628.36L251.5 695.33Z" />
				</g>
			</g>
			<path id="&lt;Path&gt;" class="shp4" d="M523.9 705.21C523.43 705.21 522.96 705.2 522.52 705.19C517 705.04 512.64 700.44 512.79 694.92C512.95 689.4 517.51 685.06 523.06 685.2C538.47 685.7 571.08 676.24 589.7 658.16C590.85 657.04 592.26 656.22 593.79 655.76C625.37 646.28 637.12 665.42 637.61 666.24L620.39 676.42C620.44 676.52 620.51 676.64 620.62 676.79C620.43 676.53 615.96 670.71 601.72 674.31C578.35 695.64 542.47 705.21 523.9 705.21Z" />
			<g id="&lt;Group&gt;">
				<path id="&lt;Path&gt;" class="shp5" d="M522.79 718.5L486.36 716.21L483.49 649.06L532.44 650.89L522.79 718.5Z" />
				<g id="&lt;Group&gt;">
					<path id="&lt;Path&gt;" class="shp5" d="M522.79 718.5L531.3 710.03L536.58 668.16L532.44 650.89L522.79 718.5Z" />
					<path id="&lt;Path&gt;" class="shp9" d="M522.79 718.5L531.3 710.03L536.58 668.16L532.44 650.89L522.79 718.5Z" />
				</g>
			</g>
			<path id="&lt;Path&gt;" class="shp4" d="M733.82 693.07C732.56 693.07 731.28 692.68 730.19 691.85C709.41 676.05 681.3 648 670.52 620.94C670.36 620.54 670.25 620.13 670.18 619.71C664.92 588.45 659.9 522.63 659.68 519.84C659.43 516.54 661.91 513.66 665.21 513.41C668.51 513.16 671.4 515.63 671.65 518.94C671.7 519.61 676.77 586.07 681.91 617.08C692.66 643.39 721.82 670.41 737.46 682.3C740.09 684.3 740.61 688.07 738.6 690.7C737.42 692.26 735.63 693.07 733.82 693.07Z" />
			<path id="&lt;Path&gt;" class="shp4" d="M761.56 696.11C756.92 696.11 751.66 694 745.93 689.86C743.24 687.91 742.64 684.16 744.58 681.48C746.53 678.79 750.28 678.19 752.96 680.13C757.92 683.72 760.62 684.11 761.56 684.11C764.87 684.11 767.56 686.79 767.56 690.11C767.56 693.42 764.87 696.11 761.56 696.11Z" />
			<path id="&lt;Path&gt;" class="shp5" d="M747.61 689.68C754.03 670.61 780.35 674.38 789.41 677.21C798.48 680.05 806.64 683.61 811.55 686.82C816.46 690.03 816.54 695.39 809.99 698.45C804.61 700.97 795.17 701.11 781.67 698.88C792.15 703.47 781.65 710.82 763.26 703.6C757.27 701.25 745.34 696.67 747.61 689.68Z" />
			<path id="&lt;Path&gt;" class="shp4" d="M683.72 528.07C681.34 544.28 667.92 556.23 657.01 554.62C646.09 553.02 645.64 538.54 648.02 522.34C650.4 506.14 654.72 494.34 665.63 495.94C676.55 497.55 686.11 511.87 683.72 528.07Z" />
			<path id="&lt;Path&gt;" class="shp4" d="M421.39 461.75C421.39 462.66 420.66 463.39 419.75 463.39C418.84 463.39 418.11 462.66 418.11 461.75C418.11 460.84 418.84 460.11 419.75 460.11C420.66 460.11 421.39 460.84 421.39 461.75Z" />
			<path id="&lt;Path&gt;" class="shp4" d="M436.42 473.56C436.42 474.46 435.68 475.19 434.78 475.19C433.87 475.19 433.14 474.46 433.14 473.56C433.14 472.65 433.87 471.92 434.78 471.92C435.68 471.92 436.42 472.65 436.42 473.56Z" />
			<path id="&lt;Path&gt;" class="shp4" d="M438.25 667.37C438.25 668.27 437.52 669 436.61 669C435.71 669 434.97 668.27 434.97 667.37C434.97 666.46 435.71 665.73 436.61 665.73C437.52 665.73 438.25 666.46 438.25 667.37Z" />
			<path id="&lt;Path&gt;" class="shp4" d="M453.28 679.17C453.28 680.08 452.54 680.81 451.64 680.81C450.73 680.81 450 680.08 450 679.17C450 678.27 450.73 677.53 451.64 677.53C452.54 677.53 453.28 678.27 453.28 679.17Z" />
		</g>
	</g>
	<g id="Robot Parts">
		<g id="&lt;Group&gt;">
			<path id="&lt;Compound Path&gt;" fill-rule="evenodd" class="shp4" d="M165.02 698.84C160.26 698.84 153.83 695.95 150.35 690.94C150.04 690.49 150.15 689.86 150.61 689.55C151.06 689.23 151.68 689.35 152 689.8C155.73 695.19 163.96 698.06 167.61 696.36C167.99 696.18 168.3 695.96 168.54 695.69C165.28 694.18 162.3 691.22 161.49 686.72C161.04 684.19 160.68 680.76 162.77 680.29C165.64 679.64 169.39 686.58 170.83 691.84C171.1 692.81 171.19 693.71 171.09 694.53C172.36 694.87 173.6 694.96 174.67 694.81C175.53 694.68 176.76 694.32 177.42 693.32C174.99 691.67 173.35 688.78 172.81 684.94C172.03 679.47 172.61 678.52 173.22 678.05C173.61 677.75 174.11 677.69 174.6 677.89C176.73 678.8 179.33 686.56 179.82 690.95C179.88 691.44 179.88 691.9 179.83 692.34C180.64 692.66 181.55 692.84 182.52 692.86C184.26 692.96 185.97 692.41 187.34 691.6C187.06 691.43 186.79 691.23 186.54 691.01C184.46 689.24 183.63 686.41 183.98 682.35C184.25 679.22 184.96 677.5 186.22 676.96C186.67 676.77 187.57 676.59 188.64 677.44C190.8 679.17 192.82 684.64 192.09 688.56C191.94 689.37 191.59 690.14 191.09 690.86C194.76 691.49 199.92 690.46 204.37 689.36C204.91 689.23 205.45 689.55 205.58 690.09C205.72 690.63 205.39 691.17 204.85 691.3C199.43 692.64 193.6 693.73 189.48 692.54C187.65 693.99 185.07 694.88 182.48 694.86C181.3 694.84 180.21 694.63 179.2 694.25C178.42 695.59 176.95 696.5 174.96 696.79C173.63 696.98 172.06 696.86 170.48 696.4C170.03 697.15 169.35 697.76 168.45 698.18C167.5 698.62 166.32 698.84 165.02 698.84ZM163.29 682.28C163.18 682.59 162.97 683.6 163.46 686.37C164.12 690.05 166.5 692.5 169.14 693.79C169.13 693.36 169.05 692.89 168.91 692.37C167.34 686.65 164.35 682.71 163.29 682.28ZM174.43 680.54C174.42 681.29 174.49 682.55 174.79 684.66C175.19 687.51 176.25 689.7 177.83 691.1C177.36 687.09 175.58 682.44 174.43 680.54ZM187.02 678.8C187.01 678.8 187.01 678.8 187.01 678.8C187.01 678.8 186.26 679.18 185.97 682.52C185.68 685.89 186.29 688.17 187.84 689.49C188.19 689.79 188.59 690.05 189.04 690.25C189.6 689.63 189.99 688.92 190.12 688.19C190.66 685.3 189.28 681.05 187.73 679.33C187.33 678.89 187.07 678.8 187.02 678.8Z" />
			<g id="&lt;Group&gt;">
				<path id="&lt;Path&gt;" class="shp4" d="M457.75 713.96L463.17 704.56L457.75 695.16L451.94 695.16L455.22 704.56L451.94 713.96L457.75 713.96Z" />
				<path id="&lt;Path&gt;" class="shp4" d="M452.33 709.46C449.63 709.46 447.43 707.26 447.43 704.56C447.43 701.86 449.63 699.68 452.33 699.68L443.11 697.83L440.67 705.27L444.78 711.55L452.33 709.46Z" />
				<path id="&lt;Compound Path&gt;" fill-rule="evenodd" class="shp5" d="M458.53 704.56L453.11 713.96L442.25 713.96L436.83 704.56L442.25 695.16L453.11 695.16L458.53 704.56ZM452.57 704.56C452.57 701.86 450.39 699.68 447.69 699.68C444.99 699.68 442.79 701.86 442.79 704.56C442.79 707.26 444.99 709.46 447.69 709.46C450.39 709.46 452.57 707.26 452.57 704.56Z" />
			</g>
			<g id="&lt;Group&gt;">
				<path id="&lt;Path&gt;" class="shp5" d="M835.78 694.53L831.75 687.55L835.78 680.57L840.09 680.57L837.65 687.55L840.09 694.53L835.78 694.53Z" />
				<path id="&lt;Path&gt;" class="shp5" d="M839.8 691.19C841.81 691.19 843.44 689.55 843.44 687.55C843.44 685.54 841.81 683.92 839.8 683.92L846.65 682.55L848.46 688.08L845.41 692.74L839.8 691.19Z" />
				<path id="&lt;Compound Path&gt;" fill-rule="evenodd" class="shp4" d="M839.22 680.57L847.29 680.57L851.31 687.55L847.29 694.53L839.22 694.53L835.19 687.55L839.22 680.57ZM843.25 691.19C845.25 691.19 846.88 689.55 846.88 687.55C846.88 685.54 845.25 683.92 843.25 683.92C841.24 683.92 839.62 685.54 839.62 687.55C839.62 689.55 841.24 691.19 843.25 691.19Z" />
			</g>
			<g id="&lt;Group&gt;">
				<path id="&lt;Path&gt;" class="shp4" d="M685.9 703.8L694.93 703.8C697.28 703.8 699.21 701.87 699.21 699.52C699.21 697.17 697.28 695.24 694.93 695.24L685.9 695.24C683.54 695.24 681.62 697.17 681.62 699.52C681.62 701.87 683.54 703.8 685.9 703.8Z" />
				<path id="&lt;Path&gt;" class="shp5" d="M671.46 695.73C673.69 690.99 679.1 688.86 683.54 690.95C687.98 693.04 689.78 698.58 687.55 703.31C685.31 708.04 679.9 710.18 675.46 708.09C671.02 705.99 669.23 700.46 671.46 695.73Z" />
				<path id="&lt;Path&gt;" class="shp4" d="M673.96 708.07L676.43 709.24L685.05 690.97L682.57 689.8L673.96 708.07Z" />
			</g>
		</g>
	</g>
</svg>