<svg xmlns="http://www.w3.org/2000/svg" viewBox="0 0 512 512" width="512" height="512">
	<style>
		tspan { white-space:pre }
		.shp0 { fill: #000000 } 
	</style>
	<g id="Layer">
		<path id="Layer" class="shp0" d="M158.57 145.66C156.8 146.46 153.85 146.86 149.73 146.86C144.94 146.86 139.94 146.13 134.72 144.65C129.51 143.18 124.8 141.23 120.59 138.79L111.01 160.49C114.79 162.84 119.56 164.82 125.32 166.42C131.08 168.01 137.12 168.98 143.43 169.32L143.43 182.69L161.22 182.69L161.22 168.69C170.63 167 177.89 163.54 182.98 158.28C188.06 153.02 190.61 146.86 190.61 139.8C190.61 133.41 188.91 128.36 185.5 124.66C182.09 120.96 178.08 118.29 173.45 116.65C168.83 115.01 163.15 113.56 156.42 112.29C151.21 111.29 147.46 110.34 145.19 109.46C142.92 108.57 141.79 107.25 141.79 105.48C141.79 101.78 145.61 99.93 153.27 99.93C161 99.93 169.2 102.12 177.87 106.49L186.82 84.92C179.84 80.97 171.31 78.53 161.21 77.6L161.21 64.1L143.43 64.1L143.43 77.85C133.42 79.29 125.74 82.65 120.4 87.95C115.06 93.25 112.39 99.6 112.39 107C112.39 113.39 114.07 118.46 117.44 122.2C120.8 125.94 124.76 128.63 129.3 130.27C133.84 131.91 139.52 133.45 146.33 134.88C151.63 135.97 155.43 136.98 157.75 137.91C160.06 138.83 161.22 140.22 161.22 142.07C161.22 143.67 160.33 144.86 158.57 145.66L158.57 145.66Z" />
		<path id="Layer" fill-rule="evenodd" class="shp0" d="M467.96 512L144.71 512C89.2 512 44.04 466.64 44.04 411.13L44.04 0L467.96 0L467.96 512ZM437.98 29.99L74.03 29.99L74.03 386.2C73.94 392.16 76.09 397.67 80.07 401.71C83.8 405.49 88.83 407.57 94.24 407.57L150.2 407.57L150.2 461C150.2 471.66 158.2 480.46 168.52 481.81L437.98 481.81L437.98 29.99ZM123.3 478.49C121.3 473.03 120.21 467.14 120.21 461L120.21 437.56L94.24 437.56C88.67 437.56 83.26 436.65 78.16 434.93C85.57 455.58 102.32 471.81 123.3 478.49Z" />
		<path id="Layer" class="shp0" d="M324.32 323.47L352.96 323.47L287.31 389.11L191.54 293.34L131.51 353.37L152.71 374.57L191.54 335.75L287.31 431.52L372.71 346.13L372.71 371.86L402.7 371.86L402.7 293.48L324.32 293.48L324.32 323.47Z" />
		<path id="Layer" class="shp0" d="M263.67 101L403.7 101L403.7 130.98L263.67 130.98L263.67 101Z" />
		<path id="Layer" class="shp0" d="M263.67 160.97L403.7 160.97L403.7 190.96L263.67 190.96L263.67 160.97Z" />
		<path id="Layer" class="shp0" d="M109.79 220.95L403.7 220.95L403.7 250.94L109.79 250.94L109.79 220.95Z" />
	</g>
</svg>