<?xml version="1.0"?>
<svg xmlns="http://www.w3.org/2000/svg" xmlns:xlink="http://www.w3.org/1999/xlink" xmlns:svgjs="http://svgjs.com/svgjs" version="1.1" width="512" height="512" x="0" y="0" viewBox="0 0 512 512" style="enable-background:new 0 0 512 512" xml:space="preserve" class=""><g><g xmlns="http://www.w3.org/2000/svg"><path d="m216 152h16v40h-16z" fill="#2645b8" data-original="#000000" style="" class=""/><path d="m280 152h16v40h-16z" fill="#2645b8" data-original="#000000" style="" class=""/><path d="m248 152h16v40h-16z" fill="#2645b8" data-original="#000000" style="" class=""/><path d="m216 216h16v40h-16z" fill="#2645b8" data-original="#000000" style="" class=""/><path d="m280 216h16v40h-16z" fill="#2645b8" data-original="#000000" style="" class=""/><path d="m248 216h16v40h-16z" fill="#2645b8" data-original="#000000" style="" class=""/><path d="m216 280h16v40h-16z" fill="#2645b8" data-original="#000000" style="" class=""/><path d="m280 280h16v40h-16z" fill="#2645b8" data-original="#000000" style="" class=""/><path d="m248 280h16v40h-16z" fill="#2645b8" data-original="#000000" style="" class=""/><path d="m216 344h16v40h-16z" fill="#2645b8" data-original="#000000" style="" class=""/><path d="m280 344h16v40h-16z" fill="#2645b8" data-original="#000000" style="" class=""/><path d="m248 344h16v40h-16z" fill="#2645b8" data-original="#000000" style="" class=""/><path d="m491.7646 80.9414-120-64a7.9943 7.9943 0 0 0 -3.7646-.9414h-8a8 8 0 0 0 -8 8v96h16v-86.9336l112 59.7336v291.2h16v-296a7.9983 7.9983 0 0 0 -4.2354-7.0586z" fill="#2645b8" data-original="#000000" style="" class=""/><path d="m480 480h-40v16h48a8 8 0 0 0 8-8v-88h-16z" fill="#2645b8" data-original="#000000" style="" class=""/><path d="m420.2949 177.251-88-56a7.994 7.994 0 0 0 -4.2949-1.251h-1.7542l-14.4851-57.94a7.9985 7.9985 0 0 0 -7.7607-6.06h-40v-40h-16v40h-40a7.9985 7.9985 0 0 0 -7.7607 6.06l-14.4851 57.94h-1.7542a7.994 7.994 0 0 0 -4.2949 1.251l-88 56a7.9985 7.9985 0 0 0 -3.7051 6.749v304a8 8 0 0 0 8 8h320a8 8 0 0 0 8-8v-304a7.9985 7.9985 0 0 0 -3.7051-6.749zm-206.0488-105.251h83.5078l12 48h-21.7539v-32h-16v32h-32v-32h-16v32h-21.7539zm-110.2461 116.3916 80-50.9092v342.5176h-32v-40h-16v40h-32zm96-52.3916h112v344h-16v-72a8 8 0 0 0 -8-8h-64a8 8 0 0 0 -8 8v72h-16zm32 280h16v64h-16zm32 64v-64h16v64zm144 0h-32v-40h-16v40h-32v-342.5176l80 50.9092z" fill="#2645b8" data-original="#000000" style="" class=""/><path d="m440 224h24v16h-24z" fill="#2645b8" data-original="#000000" style="" class=""/><path d="m440 264h24v16h-24z" fill="#2645b8" data-original="#000000" style="" class=""/><path d="m440 304h24v16h-24z" fill="#2645b8" data-original="#000000" style="" class=""/><path d="m440 344h24v16h-24z" fill="#2645b8" data-original="#000000" style="" class=""/><path d="m440 384h24v16h-24z" fill="#2645b8" data-original="#000000" style="" class=""/><path d="m440 424h24v16h-24z" fill="#2645b8" data-original="#000000" style="" class=""/><path d="m376 384h16v40h-16z" fill="#2645b8" data-original="#000000" style="" class=""/><path d="m344 384h16v40h-16z" fill="#2645b8" data-original="#000000" style="" class=""/><path d="m376 320h16v40h-16z" fill="#2645b8" data-original="#000000" style="" class=""/><path d="m344 320h16v40h-16z" fill="#2645b8" data-original="#000000" style="" class=""/><path d="m376 256h16v40h-16z" fill="#2645b8" data-original="#000000" style="" class=""/><path d="m344 256h16v40h-16z" fill="#2645b8" data-original="#000000" style="" class=""/><path d="m376 192h16v40h-16z" fill="#2645b8" data-original="#000000" style="" class=""/><path d="m344 192h16v40h-16z" fill="#2645b8" data-original="#000000" style="" class=""/><path d="m440 184h24v16h-24z" fill="#2645b8" data-original="#000000" style="" class=""/><path d="m408 144h56v16h-56z" fill="#2645b8" data-original="#000000" style="" class=""/><path d="m384 104h80v16h-80z" fill="#2645b8" data-original="#000000" style="" class=""/><path d="m32 92.8 112-59.7336v86.9336h16v-96a8 8 0 0 0 -8-8h-8a7.9943 7.9943 0 0 0 -3.7646.9414l-120 64a7.9983 7.9983 0 0 0 -4.2354 7.0586v56h16z" fill="#2645b8" data-original="#000000" style="" class=""/><path d="m32 160h-16v328a8 8 0 0 0 8 8h48v-16h-40z" fill="#2645b8" data-original="#000000" style="" class=""/><path d="m48 224h24v16h-24z" fill="#2645b8" data-original="#000000" style="" class=""/><path d="m48 264h24v16h-24z" fill="#2645b8" data-original="#000000" style="" class=""/><path d="m48 304h24v16h-24z" fill="#2645b8" data-original="#000000" style="" class=""/><path d="m48 344h24v16h-24z" fill="#2645b8" data-original="#000000" style="" class=""/><path d="m48 384h24v16h-24z" fill="#2645b8" data-original="#000000" style="" class=""/><path d="m48 424h24v16h-24z" fill="#2645b8" data-original="#000000" style="" class=""/><path d="m120 384h16v40h-16z" fill="#2645b8" data-original="#000000" style="" class=""/><path d="m152 384h16v40h-16z" fill="#2645b8" data-original="#000000" style="" class=""/><path d="m120 320h16v40h-16z" fill="#2645b8" data-original="#000000" style="" class=""/><path d="m152 320h16v40h-16z" fill="#2645b8" data-original="#000000" style="" class=""/><path d="m120 256h16v40h-16z" fill="#2645b8" data-original="#000000" style="" class=""/><path d="m152 256h16v40h-16z" fill="#2645b8" data-original="#000000" style="" class=""/><path d="m120 192h16v40h-16z" fill="#2645b8" data-original="#000000" style="" class=""/><path d="m152 192h16v40h-16z" fill="#2645b8" data-original="#000000" style="" class=""/><path d="m48 184h24v16h-24z" fill="#2645b8" data-original="#000000" style="" class=""/><path d="m48 144h56v16h-56z" fill="#2645b8" data-original="#000000" style="" class=""/><path d="m48 104h80v16h-80z" fill="#2645b8" data-original="#000000" style="" class=""/></g></g></svg>
