<?xml version="1.0"?>
<svg xmlns="http://www.w3.org/2000/svg" xmlns:xlink="http://www.w3.org/1999/xlink" xmlns:svgjs="http://svgjs.com/svgjs" version="1.1" width="512" height="512" x="0" y="0" viewBox="0 0 512 512" style="enable-background:new 0 0 512 512" xml:space="preserve" class=""><g><g xmlns="http://www.w3.org/2000/svg"><path d="m512 414.005c0 4.138-3.345 7.512-7.483 7.512s-7.512-3.374-7.512-7.512v-49.012h-33.534v132.011h33.534v-49.012c0-4.139 3.373-7.512 7.512-7.512s7.483 3.373 7.483 7.512v56.523c0 4.139-3.345 7.483-7.483 7.483h-48.53c-4.167 0-7.512-3.345-7.512-7.483v-147.005c0-4.167 3.345-7.512 7.512-7.512h48.53c4.139 0 7.483 3.345 7.483 7.512zm-465.483-107.151c-4.138 0-7.512-3.345-7.512-7.483s3.373-7.512 7.512-7.512h229.695c4.139 0 7.483 3.373 7.483 7.512s-3.345 7.483-7.483 7.483zm0-87.365c-4.138 0-7.512-3.345-7.512-7.483 0-4.139 3.373-7.512 7.512-7.512h229.695c4.139 0 7.483 3.373 7.483 7.512s-3.345 7.483-7.483 7.483zm0 29.141c-4.138 0-7.512-3.374-7.512-7.512 0-4.139 3.373-7.484 7.512-7.484h229.695c4.139 0 7.483 3.345 7.483 7.484 0 4.138-3.345 7.512-7.483 7.512zm0 29.112c-4.138 0-7.512-3.345-7.512-7.484 0-4.167 3.373-7.512 7.512-7.512h229.695c4.139 0 7.483 3.345 7.483 7.512 0 4.139-3.345 7.484-7.483 7.484zm0 121.353c-4.138 0-7.512-3.373-7.512-7.512s3.373-7.483 7.512-7.483h50.231c4.139 0 7.512 3.345 7.512 7.483s-3.373 7.512-7.512 7.512zm140.997-333.444c-4.139 0-7.512-3.374-7.512-7.512 0-4.139 3.373-7.484 7.512-7.484h88.697c4.139 0 7.483 3.345 7.483 7.484s-3.345 7.512-7.483 7.512zm0 33.96c-4.139 0-7.512-3.345-7.512-7.483 0-4.139 3.373-7.513 7.512-7.513h63.497c4.138 0 7.512 3.374 7.512 7.513 0 4.138-3.374 7.483-7.512 7.483zm-97.23 6.859c8.419 0 15.931 4.054 21.317 10.602 5.046 6.151 8.192 14.543 8.192 23.727 0 1.899-.142 3.77-.397 5.584 4.479-6.265 7.143-14.457 7.143-24.265 0-12.246-4.11-24.604-10.8-35.887-6.52-10.97-15.449-20.834-25.455-28.545-2.778 2.126-5.442 4.422-8.022 6.86-3.883 3.657-7.483 7.625-10.715 11.821-2.523 3.26-7.229 3.855-10.488 1.332-3.288-2.522-3.883-7.2-1.361-10.488 3.742-4.819 7.88-9.354 12.246-13.521 4.422-4.195 9.156-8.022 14.088-11.396 2.665-1.842 6.124-1.729 8.618.085 13.408 9.241 25.483 21.912 33.988 36.255 7.994 13.465 12.898 28.432 12.898 43.484 0 15.846-5.415 28.857-14.23 38.126-9.411 9.865-22.536 15.336-37.021 15.336s-27.638-5.471-37.049-15.336c-8.816-9.27-14.23-22.28-14.23-38.126 0-3.657.34-7.427.935-11.282s1.503-7.654 2.636-11.367c1.219-3.94 5.386-6.151 9.354-4.932 3.94 1.19 6.151 5.386 4.933 9.326-.936 3.118-1.672 6.207-2.155 9.269-.454 2.863-.68 5.868-.68 8.986 0 9.808 2.636 18 7.115 24.265-.255-1.814-.369-3.685-.369-5.584 0-9.184 3.118-17.576 8.164-23.727 5.386-6.548 12.926-10.602 21.345-10.602zm9.78 20.098c-2.579-3.146-6.066-5.102-9.78-5.102-3.742 0-7.229 1.956-9.808 5.102-2.92 3.544-4.706 8.561-4.706 14.231 0 5.641 1.786 10.658 4.706 14.23 2.579 3.146 6.066 5.103 9.808 5.103 3.714 0 7.201-1.956 9.78-5.103 2.92-3.571 4.705-8.589 4.705-14.23 0-5.67-1.785-10.687-4.705-14.231zm350.282 173.795c-4.11.142-7.597-3.061-7.767-7.2-.142-4.11 3.061-7.597 7.172-7.739l32.287-1.304c4.139-.142 7.597 3.062 7.767 7.2l1.078 27.921c.142 4.139-3.09 7.597-7.229 7.739-4.11.142-7.568-3.09-7.739-7.2l-.453-12.02-72.455 71.859c-2.438 2.41-6.293 2.92-9.298.992l-70.981-45.383v43.825h16.753c4.138 0 7.512 3.345 7.512 7.512v41.982c0 4.139-3.374 7.483-7.512 7.483-4.139 0-7.484-3.345-7.484-7.483v-34.498h-16.781-16.753v102.956h33.534v-34.498c0-4.139 3.345-7.484 7.484-7.484 4.138 0 7.512 3.345 7.512 7.484v42.01c0 4.139-3.374 7.483-7.512 7.483h-48.53c-4.139 0-7.512-3.345-7.512-7.483v-57.431h-18.964v57.431c0 4.139-3.345 7.483-7.512 7.483h-48.53c-4.139 0-7.484-3.345-7.484-7.483v-57.431h-193.437c-4.139 0-7.512-3.373-7.512-7.512v-432.062c0-4.139 3.373-7.512 7.512-7.512h307.705c4.139 0 7.512 3.373 7.512 7.512v121.466c0 4.139-3.373 7.483-7.512 7.483s-7.484-3.345-7.484-7.483v-113.983h-292.738v417.067h185.955v-8.816c0-4.139 3.345-7.484 7.484-7.484h48.53c4.167 0 7.512 3.345 7.512 7.484v8.816h18.964v-45.497c0-4.167 3.373-7.512 7.512-7.512h16.781v-46.319l-96.464 39.884c-3.798 1.587-8.164-.255-9.751-4.082-1.56-3.799.255-8.164 4.082-9.751l102.133-42.208v-153.64c0-4.138 3.345-7.483 7.484-7.483s7.512 3.345 7.512 7.483v154.547l73.985 47.31 65.453-64.914zm-234.4 196.642h33.535v-66.247h-33.535zm165.007 0h33.534v-50.202h-33.534zm41.046 14.995h-48.53c-4.139 0-7.512-3.345-7.512-7.483v-65.198c0-4.138 3.373-7.512 7.512-7.512h48.53c4.139 0 7.512 3.374 7.512 7.512v65.198c0 4.138-3.373 7.483-7.512 7.483z" fill="#2645b8" data-original="#000000" style="" class=""/></g></g></svg>
