<svg xmlns="http://www.w3.org/2000/svg" viewBox="0 0 469 468.53"><defs><style>.cls-1{isolation:isolate;}.cls-2{fill:#1488cc;}</style></defs><title>small-wallet</title><g id="Shape_1" data-name="Shape 1" class="cls-1"><g id="Shape_1-2" data-name="Shape 1"><path class="cls-2" d="M362.41,277.92a21.34,21.34,0,1,0,21.32,21.34A21.36,21.36,0,0,0,362.41,277.92Zm85.27-40.72v-66a42.57,42.57,0,0,0-39.24-42.34l-61.22-107A42.16,42.16,0,0,0,289.35,6.22L79.49,128.53H42.64A42.7,42.7,0,0,0,0,171.2V427.33A42.73,42.73,0,0,0,33.49,469H414.2a42.73,42.73,0,0,0,33.49-41.68v-66a32,32,0,0,0,21.32-30V267.23A32,32,0,0,0,447.68,237.21Zm-64-108.67H290.76l69.68-40.61ZM349.85,69.4L248.39,128.53H206.31L339.33,51ZM300.08,24.67a20.59,20.59,0,0,1,15.83-2.14,20.9,20.9,0,0,1,12.8,9.91l0,0L163.94,128.53H121.86ZM426.36,427.32A21.36,21.36,0,0,1,405,448.66H42.64a21.36,21.36,0,0,1-21.32-21.34V171.21a21.36,21.36,0,0,1,21.32-21.34H405a21.36,21.36,0,0,1,21.32,21.34v64h-64a64,64,0,0,0,0,128.05h64v64Zm21.32-96A10.67,10.67,0,0,1,437,341.95H362.41a42.68,42.68,0,0,1,0-85.37H437a10.67,10.67,0,0,1,10.66,10.67v64Z" transform="translate(0 -0.47)"/></g></g></svg>