<svg xmlns="http://www.w3.org/2000/svg" viewBox="0 0 512.1 511.96"><defs><style>.cls-1{isolation:isolate;}.cls-2{fill:#1488cc;fill-rule:evenodd;}</style></defs><title>small-call</title><g id="Forma_1" data-name="Forma 1" class="cls-1"><g id="Forma_1-2" data-name="Forma 1"><path class="cls-2" d="M499,394.94l-19.89-13.25A254.74,254.74,0,0,0,257.43,1a8.53,8.53,0,1,0,0,17.06A237.69,237.69,0,0,1,464.89,372.19l-69.54-46.35a30.27,30.27,0,0,0-40.51,6.58l-30.16,38.81a12.91,12.91,0,0,1-16.55,3.48l-5.74-3.17c-19-10.38-42.73-23.29-90.46-71s-60.68-71.44-71.05-90.44l-3.15-5.74a12.92,12.92,0,0,1,3.41-16.6l38.79-30.18a30.26,30.26,0,0,0,6.59-40.5L117.4,13.42A30.1,30.1,0,0,0,76.83,4.29l-43.34,26A61.13,61.13,0,0,0,5.61,66.49C-10,123.35,1.74,221.48,146.32,366c63,63,117.13,100.68,162.91,122A237.32,237.32,0,0,1,19.59,256a8.53,8.53,0,0,0-17.07,0c0.13,140.71,114.16,254.76,254.9,254.94a252,252,0,0,0,77.66-12.24,210.13,210.13,0,0,0,70.71,13.26,151.22,151.22,0,0,0,40.11-5.24,61.08,61.08,0,0,0,36.18-27.87l26.06-43.31A30.09,30.09,0,0,0,499,394.94Zm-5.55,31.8-26,43.33a44.1,44.1,0,0,1-26.06,20.19c-24.82,6.83-58.45,7.68-101.65-7.89a8.5,8.5,0,0,0-2.19-.85C289.79,463.79,230.45,426,158.37,353.94,19.61,215.22,7.66,123.5,22.07,71A44.16,44.16,0,0,1,42.27,45L85.61,19a13.06,13.06,0,0,1,17.6,4l37.55,56.36,31.52,47.26a13.13,13.13,0,0,1-2.85,17.58l-38.8,30.18a29.86,29.86,0,0,0-7.91,38.33l3.08,5.6c10.91,20,24.47,44.88,74,94.36s74.38,63,94.37,73.95l5.61,3.09a29.87,29.87,0,0,0,38.33-7.91l30.18-38.79a13.14,13.14,0,0,1,17.58-2.85l103.64,69.11A13,13,0,0,1,493.48,426.74Z" transform="translate(-0.37 0.02)"/></g></g></svg>