<?xml version="1.0"?>
<svg xmlns="http://www.w3.org/2000/svg" xmlns:xlink="http://www.w3.org/1999/xlink" xmlns:svgjs="http://svgjs.com/svgjs" version="1.1" width="512" height="512" x="0" y="0" viewBox="0 0 64 64" style="enable-background:new 0 0 512 512" xml:space="preserve" class=""><g><path xmlns="http://www.w3.org/2000/svg" d="m29.515 44h16.971v2h-16.971z" transform="matrix(.707 -.707 .707 .707 -20.69 40.05)" fill="#2645b8" data-original="#000000" style=""/><path xmlns="http://www.w3.org/2000/svg" d="m34 44c1.654 0 3-1.346 3-3s-1.346-3-3-3-3 1.346-3 3 1.346 3 3 3zm0-4c.552 0 1 .448 1 1s-.448 1-1 1-1-.448-1-1 .448-1 1-1z" fill="#2645b8" data-original="#000000" style=""/><path xmlns="http://www.w3.org/2000/svg" d="m42 46c-1.654 0-3 1.346-3 3s1.346 3 3 3 3-1.346 3-3-1.346-3-3-3zm0 4c-.552 0-1-.448-1-1s.448-1 1-1 1 .448 1 1-.448 1-1 1z" fill="#2645b8" data-original="#000000" style=""/><path xmlns="http://www.w3.org/2000/svg" d="m11 21h36v2h-36z" fill="#2645b8" data-original="#000000" style=""/><path xmlns="http://www.w3.org/2000/svg" d="m11 25h13v2h-13z" fill="#2645b8" data-original="#000000" style=""/><path xmlns="http://www.w3.org/2000/svg" d="m26 25h2v2h-2z" fill="#2645b8" data-original="#000000" style=""/><path xmlns="http://www.w3.org/2000/svg" d="m11 29h17v2h-17z" fill="#2645b8" data-original="#000000" style=""/><path xmlns="http://www.w3.org/2000/svg" d="m11 33h2v2h-2z" fill="#2645b8" data-original="#000000" style=""/><path xmlns="http://www.w3.org/2000/svg" d="m15 33h13v2h-13z" fill="#2645b8" data-original="#000000" style=""/><path xmlns="http://www.w3.org/2000/svg" d="m11 37h10v2h-10z" fill="#2645b8" data-original="#000000" style=""/><path xmlns="http://www.w3.org/2000/svg" d="m51 8v-7h-44v43.758c0 1.053.427 2.084 1.172 2.828l5.828 5.828v9.586h43v-55zm-42-5h40v52h-29v-10h-10.976c-.01-.081-.024-.161-.024-.242zm9 51.555c-.058-.046-.119-.088-.172-.141l-7.414-7.414h7.586zm37 6.445h-39v-5.586l.414.414c.744.745 1.775 1.172 2.828 1.172h31.758v-47h4z" fill="#2645b8" data-original="#000000" style=""/><path xmlns="http://www.w3.org/2000/svg" d="m39 17.333 2-2.667 2 2.667v1.667h2v-2.333l-2.75-3.667 2.75-3.667v-2.333h-2v1.667l-2 2.667-2-2.667v-1.667h-2v2.333l2.75 3.667-2.75 3.667v2.333h2z" fill="#2645b8" data-original="#000000" style=""/><path xmlns="http://www.w3.org/2000/svg" d="m27 17h4v2h2v-3l-2.219-9h-3.562l-2.188 8.758-.031 3.242h2zm2.219-8 1.5 6h-3.438l1.5-6z" fill="#2645b8" data-original="#000000" style=""/><path xmlns="http://www.w3.org/2000/svg" d="m17 19h2v-10h4v-2h-10v2h4z" fill="#2645b8" data-original="#000000" style=""/></g></svg>
