<svg xmlns="http://www.w3.org/2000/svg" viewBox="0 0 416.42 511.82"><defs><style>.cls-1{isolation:isolate;}.cls-2{fill:#1488cc;}</style></defs><title>small-money</title><g id="Forma_1" data-name="Forma 1" class="cls-1"><g id="Forma_1-2" data-name="Forma 1"><path class="cls-2" d="M413.19,154.57a23.53,23.53,0,0,0-14.77-10.5l-32.48-7.46,15-4.19a23.67,23.67,0,1,0-12.77-45.58l-69.92,19.55a23.83,23.83,0,0,0-7.53-8.25C304.91,71.76,325.36,27,325.36,7.73A7.63,7.63,0,0,0,316.3.33a375.36,375.36,0,0,1-79.06,7.91C211.09,8,178.54,4.71,158.09.35A7.62,7.62,0,0,0,150,11.62a78.27,78.27,0,0,1,9.71,25.91c-25.67.79-52.28-2.32-72.43-12.38a7.63,7.63,0,0,0-10.84,8c6.34,38,19.12,60.24,31.93,77.06h-0.28A23.66,23.66,0,0,0,105,157.32C96.57,171.48,84.49,184.91,71.8,199c-27,30-57.58,63.93-67.88,118.77-4.93,26.24-4.76,50.79.49,73a135.11,135.11,0,0,0,27.74,55.72c17.93,21.58,42.57,38.33,73.22,49.78C133,506.55,164.62,512,196.83,512s63.84-5.45,91.45-15.76c30.65-11.45,55.29-28.2,73.22-49.78a135.11,135.11,0,0,0,27.74-55.72c5.25-22.18,5.41-46.74.49-73C379.45,262.93,348.85,229,321.86,199c-9.16-10.17-17.88-19.87-25.19-29.72l91.14,20.92A23.67,23.67,0,0,0,413.19,154.57ZM237.07,23.34a382.19,382.19,0,0,0,71.72-6.21c-4.56,18.64-19.22,51.78-33.11,77a23.73,23.73,0,0,0-20.65,16H234l-1.59-3.38C226,93,212.46,64.36,212.46,40a7.63,7.63,0,0,0-9-7.41,267,267,0,0,1-28.55,4.07,97.33,97.33,0,0,0-5.08-18.82A509.65,509.65,0,0,0,237.07,23.34Zm31.86,94a8.56,8.56,0,0,1,17.12.43V150a8.57,8.57,0,0,1-17.14,0V117.75h0.5S269.11,117,268.93,117.32ZM94.1,44.27c18.9,6.44,42.15,9.3,67.26,8.42l15-.95c7.07-.65,14.24-1.58,21.46-2.8,2.36,23.37,13,47.38,19.53,61.26H127.71a7.72,7.72,0,0,0-.56-0.77C114.5,94.23,101.67,76.65,94.1,44.27ZM310.62,209.1c25.66,28.49,54.74,60.78,64.26,111.45,8.75,46.64.34,85.75-25,116.26-31.25,37.62-88.46,60.08-153,60.08s-121.78-22.46-153-60.08C18.45,406.3,10,367.18,18.79,320.55c9.51-50.67,38.6-83,64.26-111.45,15.34-17,29.84-33.15,39.13-51.57h18.46a7.55,7.55,0,1,0,0-15.1H108.13a8.56,8.56,0,1,1,0-17.12H253.78v17.12H176.67a7.55,7.55,0,1,0,0,15.1H255a23.7,23.7,0,0,0,26,15.85C289.45,185.57,299.74,197,310.62,209.1Zm-9.46-87.84,71.08-19.87a8.56,8.56,0,1,1,4.62,16.49l-40.62,11.36a7.51,7.51,0,0,0-1,.35l-34.12-7.83v-0.48ZM401.47,169a8.57,8.57,0,0,1-10.27,6.43L300.69,154.7a23.7,23.7,0,0,0,.47-4.72V137.24L395,158.79A8.64,8.64,0,0,1,401.47,169Zm-185,54.45V210.4a19.66,19.66,0,0,0-39.31,0v14.1a61.93,61.93,0,0,0,13.61,122.35h12.1a22.66,22.66,0,1,1,0,45.32H184.73a16.64,16.64,0,0,1-16.63-16.62,19.66,19.66,0,0,0-39.31,0,56,56,0,0,0,48.39,55.38V444a19.66,19.66,0,0,0,39.31,0v-14.1a61.93,61.93,0,0,0-13.61-122.35h-12.1a22.66,22.66,0,1,1,0-45.32h18.14a16.64,16.64,0,0,1,16.63,16.62V291a19.66,19.66,0,0,0,39.31,0V278.88A56,56,0,0,0,216.49,223.49ZM249.75,291a4.54,4.54,0,0,1-9.07,0V278.88a31.77,31.77,0,0,0-31.75-31.72H190.78a37.76,37.76,0,1,0,0,75.53h12.1A46.82,46.82,0,0,1,208.09,416a7.56,7.56,0,0,0-6.73,7.51V444a4.54,4.54,0,0,1-9.07,0V423.89a7.56,7.56,0,0,0-7.56-7.55,40.85,40.85,0,0,1-40.82-40.78,4.54,4.54,0,0,1,9.07,0,31.77,31.77,0,0,0,31.75,31.72h18.14a37.76,37.76,0,1,0,0-75.53h-12.1a46.82,46.82,0,0,1-5.21-93.36,7.56,7.56,0,0,0,6.73-7.51V210.4a4.54,4.54,0,0,1,9.07,0v20.14a7.56,7.56,0,0,0,7.56,7.55,40.85,40.85,0,0,1,40.82,40.78V291Z" transform="translate(-0.35 -0.18)"/></g></g></svg>