<svg xmlns="http://www.w3.org/2000/svg" viewBox="0 0 480 480"><defs><style>.cls-1{isolation:isolate;}.cls-2{fill:#1488cc;fill-rule:evenodd;}</style></defs><title>small-user</title><g id="Forma_1" data-name="Forma 1" class="cls-1"><g id="Forma_1-2" data-name="Forma 1"><path class="cls-2" d="M240,0C107.66,0,0,107.66,0,240A238.87,238.87,0,0,0,55,392.7c0.09,0.12.1,0.27,0.19,0.38a239.93,239.93,0,0,0,90.62,67.62l1.19,0.52c2.81,1.18,5.65,2.28,8.5,3.35,1.12,0.42,2.24.86,3.38,1.26q3.68,1.32,7.42,2.51c1.59,0.51,3.18,1,4.79,1.5q3.3,1,6.63,1.89c2,0.53,3.92,1,5.89,1.49s4,1,6,1.38c2.24,0.48,4.5.9,6.78,1.32,1.82,0.34,3.64.69,5.48,1,2.52,0.41,5.06.73,7.6,1.06,1.64,0.21,3.27.45,4.92,0.62,2.88,0.3,5.78.52,8.7,0.72,1.35,0.1,2.7.24,4.06,0.31Q233.5,480,240,480c4.33,0,8.62-.13,12.89-0.35,1.36-.07,2.7-0.22,4.06-0.31,2.91-.21,5.82-0.42,8.7-0.72,1.65-.18,3.28-0.42,4.92-0.62,2.54-.33,5.08-0.65,7.6-1.06,1.83-.3,3.66-0.65,5.48-1,2.26-.42,4.53-0.84,6.78-1.32,2-.43,4-0.9,6-1.38s3.94-1,5.89-1.49c2.22-.59,4.43-1.23,6.63-1.89,1.61-.48,3.2-1,4.79-1.5q3.73-1.2,7.42-2.51c1.13-.41,2.25-0.84,3.38-1.26,2.86-1.07,5.69-2.18,8.5-3.35l1.19-.52a240,240,0,0,0,90.62-67.62c0.1-.11.1-0.27,0.19-0.38A239,239,0,0,0,480,240C480,107.66,372.34,0,240,0Zm97.26,441.76-0.35.18c-2.86,1.38-5.76,2.67-8.69,3.94l-2,.85q-3.84,1.61-7.76,3.06c-1.09.41-2.18,0.81-3.27,1.19-2.31.82-4.63,1.62-7,2.37-1.46.46-2.92,0.9-4.38,1.34-2.08.62-4.17,1.22-6.28,1.78-1.78.47-3.57,0.9-5.36,1.33s-3.75.9-5.65,1.3c-2.07.44-4.16,0.82-6.24,1.19-1.69.31-3.37,0.64-5.07,0.91-2.34.37-4.71,0.66-7.07,1-1.5.19-3,.42-4.5,0.58-2.7.29-5.42,0.47-8.13,0.66-1.21.08-2.41,0.22-3.63,0.28Q246,464,240,464t-11.9-.32c-1.22-.06-2.42-0.19-3.63-0.28-2.72-.18-5.43-0.38-8.13-0.66-1.51-.16-3-0.38-4.5-0.58-2.36-.3-4.73-0.59-7.07-1-1.7-.27-3.38-0.6-5.07-0.91-2.09-.38-4.18-0.76-6.24-1.19-1.9-.4-3.78-0.86-5.65-1.3s-3.58-.86-5.36-1.33c-2.1-.56-4.2-1.17-6.28-1.78-1.46-.43-2.93-0.87-4.38-1.34q-3.52-1.13-7-2.37l-3.27-1.19q-3.91-1.46-7.76-3.06c-0.66-.27-1.31-0.56-2-0.84-2.93-1.26-5.83-2.56-8.7-3.94l-0.35-.18a225.09,225.09,0,0,1-72.58-56A176.57,176.57,0,0,1,185.74,264.7c1.11,0.68,2.27,1.29,3.42,1.93,0.67,0.38,1.34.78,2,1.14,2.38,1.26,4.8,2.45,7.27,3.51,1.9,0.83,3.86,1.54,5.81,2.26L205.4,274a102.1,102.1,0,0,0,69.19,0l1.15-.42c2-.72,3.91-1.42,5.81-2.26,2.47-1.06,4.89-2.25,7.27-3.51,0.68-.37,1.34-0.76,2-1.14,1.14-.64,2.31-1.25,3.43-1.94A176.62,176.62,0,0,1,409.83,385.81,225.31,225.31,0,0,1,337.26,441.76ZM152,176a88,88,0,1,1,135.87,73.74,84.74,84.74,0,0,1-9.8,5.48l-1.19.58a90,90,0,0,1-73.76,0l-1.19-.58a84.08,84.08,0,0,1-9.8-5.48A87.94,87.94,0,0,1,152,176ZM421.83,370.58A192.76,192.76,0,0,0,309.46,253.19a104,104,0,1,0-138.9,0A192.78,192.78,0,0,0,58.18,370.58,222.68,222.68,0,0,1,16,240C16,116.49,116.49,16,240,16S464,116.49,464,240A222.73,222.73,0,0,1,421.83,370.58Z"/></g></g></svg>