<svg xmlns="http://www.w3.org/2000/svg" viewBox="0 0 512 393"><defs><style>.cls-1{isolation:isolate;}.cls-2{fill:#1488cc;}</style></defs><title>small-emails</title><g id="Forma_1" data-name="Forma 1" class="cls-1"><g id="Forma_1-2" data-name="Forma 1"><path class="cls-2" d="M486.4,0H25.6A25.62,25.62,0,0,0,0,25.63V367.37A25.62,25.62,0,0,0,25.6,393H486.4A25.62,25.62,0,0,0,512,367.37V25.63A25.62,25.62,0,0,0,486.4,0Zm8.53,367.37a8.54,8.54,0,0,1-8.53,8.54H25.6a8.54,8.54,0,0,1-8.53-8.54V25.63a8.54,8.54,0,0,1,8.53-8.54H486.4a8.54,8.54,0,0,1,8.53,8.54V367.37ZM470.08,34.21a8.52,8.52,0,0,0-6.23,2L267,201.75a17.05,17.05,0,0,1-22,0L48.15,36.17a8.54,8.54,0,0,0-11,13.09L234,214.82a34.06,34.06,0,0,0,43.91,0L474.82,49.26A8.55,8.55,0,0,0,470.08,34.21Zm-306,179.44a8.53,8.53,0,0,0-8.23,2.65L36.43,344.46A8.54,8.54,0,1,0,48.9,356.11L168.37,228A8.55,8.55,0,0,0,164.12,213.65Zm192,2.65A8.54,8.54,0,1,0,343.63,228L463.1,356.11a8.54,8.54,0,0,0,12.48-11.65Z" transform="translate(0 0)"/></g></g></svg>